<svg version="1.1" xmlns="http://www.w3.org/2000/svg" viewBox="0 0 1418.3683828775074 1091.0500719146887" width="4255.105148632522" height="3273.1502157440664" filter="invert(93%) hue-rotate(180deg)">
  <!-- svg-source:excalidraw -->
  
  <defs>
    <style class="style-fonts">
      @font-face {
        font-family: "Virgil";
        src: url("https://excalidraw.com/Virgil.woff2");
      }
      @font-face {
        font-family: "Cascadia";
        src: url("https://excalidraw.com/Cascadia.woff2");
      }
    </style>
  </defs>
  <rect x="0" y="0" width="1418.3683828775074" height="1091.0500719146887" fill="#ffffff"></rect><g stroke-linecap="round" transform="translate(436.90223631752133 447.08300348709054) rotate(0 32.2305761824785 32.199712367130076)"><path d="M0 0 C0 0, 0 0, 0 0 M0 0 C0 0, 0 0, 0 0 M0.13 12.04 C3.2 8.52, 6.26 4.99, 10.63 -0.03 M0.13 12.04 C3.04 8.69, 5.96 5.34, 10.63 -0.03 M0.27 24.08 C6.1 17.37, 11.94 10.65, 21.26 -0.07 M0.27 24.08 C6.9 16.45, 13.54 8.81, 21.26 -0.07 M-0.26 36.88 C11.88 22.92, 24.01 8.96, 31.89 -0.1 M-0.26 36.88 C6.96 28.57, 14.18 20.27, 31.89 -0.1 M-0.12 48.92 C15.07 31.44, 30.26 13.97, 42.52 -0.14 M-0.12 48.92 C16.55 29.74, 33.22 10.56, 42.52 -0.14 M0.01 60.96 C15.86 42.73, 31.7 24.5, 53.15 -0.17 M0.01 60.96 C16.34 42.17, 32.67 23.39, 53.15 -0.17 M4.08 68.47 C16.73 53.92, 29.38 39.36, 63.78 -0.21 M4.08 68.47 C19.79 50.4, 35.5 32.32, 63.78 -0.21 M14.71 68.44 C27.74 53.44, 40.78 38.45, 69.82 5.04 M14.71 68.44 C27.89 53.27, 41.08 38.1, 69.82 5.04 M25.34 68.4 C36.4 55.68, 47.46 42.95, 69.95 17.08 M25.34 68.4 C34.31 58.08, 43.29 47.75, 69.95 17.08 M35.97 68.37 C45.03 57.95, 54.09 47.53, 70.08 29.12 M35.97 68.37 C49.39 52.93, 62.81 37.49, 70.08 29.12 M46.6 68.33 C52.69 61.33, 58.77 54.33, 70.22 41.16 M46.6 68.33 C52.09 62.01, 57.59 55.69, 70.22 41.16 M57.23 68.3 C61.58 63.3, 65.93 58.29, 69.69 53.96 M57.23 68.3 C59.75 65.4, 62.27 62.51, 69.69 53.96 M-0.19 64.24 C-0.19 64.24, -0.19 64.24, -0.19 64.24 M-0.19 64.24 C-0.19 64.24, -0.19 64.24, -0.19 64.24 M11.85 64.1 C7.73 60.52, 3.61 56.94, -0.22 53.61 M11.85 64.1 C7.54 60.36, 3.23 56.61, -0.22 53.61 M24.65 64.63 C16.55 57.58, 8.45 50.54, -0.26 42.98 M24.65 64.63 C17.59 58.49, 10.53 52.35, -0.26 42.98 M36.69 64.49 C22.37 52.05, 8.06 39.6, -0.29 32.35 M36.69 64.49 C28.95 57.76, 21.21 51.03, -0.29 32.35 M48.73 64.36 C32.89 50.59, 17.04 36.81, -0.33 21.72 M48.73 64.36 C31.31 49.22, 13.9 34.08, -0.33 21.72 M60.77 64.23 C41.06 47.09, 21.36 29.96, -0.36 11.09 M60.77 64.23 C38.18 44.58, 15.58 24.94, -0.36 11.09 M68.28 60.16 C42.86 38.06, 17.44 15.96, 0.36 1.11 M68.28 60.16 C53.03 46.9, 37.77 33.63, 0.36 1.11 M68.25 49.53 C50.93 34.47, 33.61 19.41, 4.85 -5.58 M68.25 49.53 C48.74 32.57, 29.23 15.61, 4.85 -5.58 M68.21 38.9 C56.63 28.83, 45.05 18.76, 16.89 -5.72 M68.21 38.9 C51.96 24.77, 35.71 10.64, 16.89 -5.72 M68.18 28.27 C58.12 19.52, 48.05 10.77, 28.93 -5.85 M68.18 28.27 C54.33 16.23, 40.49 4.19, 28.93 -5.85 M68.15 17.64 C62.48 12.71, 56.82 7.79, 41.73 -5.33 M68.15 17.64 C62.46 12.7, 56.78 7.76, 41.73 -5.33 M68.11 7.01 C62.67 2.27, 57.23 -2.46, 53.77 -5.46 M68.11 7.01 C63.9 3.35, 59.69 -0.31, 53.77 -5.46" stroke="#e6498088" stroke-width="1" fill="none"></path><path d="M0 0 C21.94 0, 43.87 0, 64.46 0 M0 0 C24.75 0, 49.5 0, 64.46 0 M64.46 0 C64.46 22.5, 64.46 45.01, 64.46 64.4 M64.46 0 C64.46 14.94, 64.46 29.88, 64.46 64.4 M64.46 64.4 C38.92 64.4, 13.37 64.4, 0 64.4 M64.46 64.4 C46.25 64.4, 28.04 64.4, 0 64.4 M0 64.4 C0 41.88, 0 19.36, 0 0 M0 64.4 C0 50.78, 0 37.16, 0 0" stroke="#000000" stroke-width="2" fill="none"></path></g><g stroke-linecap="round" transform="translate(454.3880833842659 481.1914020491081) rotate(0 4.260445672687695 4.260445672687695)"><path d="M8.52 4.26 C8.52 4.51, 8.5 4.76, 8.46 5 C8.41 5.24, 8.35 5.49, 8.26 5.72 C8.18 5.95, 8.07 6.18, 7.95 6.39 C7.83 6.6, 7.68 6.81, 7.52 7 C7.37 7.19, 7.19 7.37, 7 7.52 C6.81 7.68, 6.6 7.83, 6.39 7.95 C6.18 8.07, 5.95 8.18, 5.72 8.26 C5.49 8.35, 5.24 8.41, 5 8.46 C4.76 8.5, 4.51 8.52, 4.26 8.52 C4.01 8.52, 3.76 8.5, 3.52 8.46 C3.28 8.41, 3.04 8.35, 2.8 8.26 C2.57 8.18, 2.34 8.07, 2.13 7.95 C1.92 7.83, 1.71 7.68, 1.52 7.52 C1.33 7.37, 1.16 7.19, 1 7 C0.84 6.81, 0.69 6.6, 0.57 6.39 C0.45 6.18, 0.34 5.95, 0.26 5.72 C0.17 5.49, 0.11 5.24, 0.06 5 C0.02 4.76, 0 4.51, 0 4.26 C0 4.01, 0.02 3.76, 0.06 3.52 C0.11 3.28, 0.17 3.04, 0.26 2.8 C0.34 2.57, 0.45 2.34, 0.57 2.13 C0.69 1.92, 0.84 1.71, 1 1.52 C1.16 1.33, 1.33 1.16, 1.52 1 C1.71 0.84, 1.92 0.69, 2.13 0.57 C2.34 0.45, 2.57 0.34, 2.8 0.26 C3.04 0.17, 3.28 0.11, 3.52 0.06 C3.76 0.02, 4.01 0, 4.26 0 C4.51 0, 4.76 0.02, 5 0.06 C5.24 0.11, 5.49 0.17, 5.72 0.26 C5.95 0.34, 6.18 0.45, 6.39 0.57 C6.6 0.69, 6.81 0.84, 7 1 C7.19 1.16, 7.37 1.33, 7.52 1.52 C7.68 1.71, 7.83 1.92, 7.95 2.13 C8.07 2.34, 8.18 2.57, 8.26 2.8 C8.35 3.04, 8.41 3.28, 8.46 3.52 C8.5 3.76, 8.51 4.14, 8.52 4.26 C8.53 4.38, 8.53 4.14, 8.52 4.26" stroke="#000000" stroke-width="2" fill="none"></path></g><g stroke-linecap="round" transform="translate(475.2680914927969 481.06476217424574) rotate(0 4.260445672687695 4.260445672687695)"><path d="M8.52 4.26 C8.52 4.51, 8.5 4.76, 8.46 5 C8.41 5.24, 8.35 5.49, 8.26 5.72 C8.18 5.95, 8.07 6.18, 7.95 6.39 C7.83 6.6, 7.68 6.81, 7.52 7 C7.37 7.19, 7.19 7.37, 7 7.52 C6.81 7.68, 6.6 7.83, 6.39 7.95 C6.18 8.07, 5.95 8.18, 5.72 8.26 C5.49 8.35, 5.24 8.41, 5 8.46 C4.76 8.5, 4.51 8.52, 4.26 8.52 C4.01 8.52, 3.76 8.5, 3.52 8.46 C3.28 8.41, 3.04 8.35, 2.8 8.26 C2.57 8.18, 2.34 8.07, 2.13 7.95 C1.92 7.83, 1.71 7.68, 1.52 7.52 C1.33 7.37, 1.16 7.19, 1 7 C0.84 6.81, 0.69 6.6, 0.57 6.39 C0.45 6.18, 0.34 5.95, 0.26 5.72 C0.17 5.49, 0.11 5.24, 0.06 5 C0.02 4.76, 0 4.51, 0 4.26 C0 4.01, 0.02 3.76, 0.06 3.52 C0.11 3.28, 0.17 3.04, 0.26 2.8 C0.34 2.57, 0.45 2.34, 0.57 2.13 C0.69 1.92, 0.84 1.71, 1 1.52 C1.16 1.33, 1.33 1.16, 1.52 1 C1.71 0.84, 1.92 0.69, 2.13 0.57 C2.34 0.45, 2.57 0.34, 2.8 0.26 C3.04 0.17, 3.28 0.11, 3.52 0.06 C3.76 0.02, 4.01 0, 4.26 0 C4.51 0, 4.76 0.02, 5 0.06 C5.24 0.11, 5.49 0.17, 5.72 0.26 C5.95 0.34, 6.18 0.45, 6.39 0.57 C6.6 0.69, 6.81 0.84, 7 1 C7.19 1.16, 7.37 1.33, 7.52 1.52 C7.68 1.71, 7.83 1.92, 7.95 2.13 C8.07 2.34, 8.18 2.57, 8.26 2.8 C8.35 3.04, 8.41 3.28, 8.46 3.52 C8.5 3.76, 8.51 4.14, 8.52 4.26 C8.53 4.38, 8.53 4.14, 8.52 4.26" stroke="#000000" stroke-width="2" fill="none"></path></g><g stroke-linecap="round" transform="translate(465.10603831519575 465.1198088882368) rotate(0 4.260445672687695 4.260445672687666)"><path d="M8.52 4.26 C8.52 4.51, 8.5 4.76, 8.46 5 C8.41 5.24, 8.35 5.49, 8.26 5.72 C8.18 5.95, 8.07 6.18, 7.95 6.39 C7.83 6.6, 7.68 6.81, 7.52 7 C7.37 7.19, 7.19 7.37, 7 7.52 C6.81 7.68, 6.6 7.83, 6.39 7.95 C6.18 8.07, 5.95 8.18, 5.72 8.26 C5.49 8.35, 5.24 8.41, 5 8.46 C4.76 8.5, 4.51 8.52, 4.26 8.52 C4.01 8.52, 3.76 8.5, 3.52 8.46 C3.28 8.41, 3.04 8.35, 2.8 8.26 C2.57 8.18, 2.34 8.07, 2.13 7.95 C1.92 7.83, 1.71 7.68, 1.52 7.52 C1.33 7.37, 1.16 7.19, 1 7 C0.84 6.81, 0.69 6.6, 0.57 6.39 C0.45 6.18, 0.34 5.95, 0.26 5.72 C0.17 5.49, 0.11 5.24, 0.06 5 C0.02 4.76, 0 4.51, 0 4.26 C0 4.01, 0.02 3.76, 0.06 3.52 C0.11 3.28, 0.17 3.04, 0.26 2.8 C0.34 2.57, 0.45 2.34, 0.57 2.13 C0.69 1.92, 0.84 1.71, 1 1.52 C1.16 1.33, 1.33 1.16, 1.52 1 C1.71 0.84, 1.92 0.69, 2.13 0.57 C2.34 0.45, 2.57 0.34, 2.8 0.26 C3.04 0.17, 3.28 0.11, 3.52 0.06 C3.76 0.02, 4.01 0, 4.26 0 C4.51 0, 4.76 0.02, 5 0.06 C5.24 0.11, 5.49 0.17, 5.72 0.26 C5.95 0.34, 6.18 0.45, 6.39 0.57 C6.6 0.69, 6.81 0.84, 7 1 C7.19 1.16, 7.37 1.33, 7.52 1.52 C7.68 1.71, 7.83 1.92, 7.95 2.13 C8.07 2.34, 8.18 2.57, 8.26 2.8 C8.35 3.04, 8.41 3.28, 8.46 3.52 C8.5 3.76, 8.51 4.14, 8.52 4.26 C8.53 4.38, 8.53 4.14, 8.52 4.26" stroke="#000000" stroke-width="2" fill="none"></path></g><g stroke-linecap="round"><g transform="translate(471.9259472394897 473.1600990450561) rotate(0 2.782203151505996 4.195918589581851)"><path d="M0 0 C1.18 1.78, 2.36 3.56, 5.56 8.39 M0 0 C1.95 2.95, 3.91 5.89, 5.56 8.39" stroke="#000000" stroke-width="2" fill="none"></path></g></g><mask></mask><g stroke-linecap="round"><g transform="translate(467.10875100886824 473.1021111355774) rotate(0 -3.0059274833834593 4.429053043097923)"><path d="M0 0 C-1.89 2.78, -3.78 5.57, -6.01 8.86 M0 0 C-2.06 3.03, -4.11 6.06, -6.01 8.86" stroke="#000000" stroke-width="2" fill="none"></path></g></g><mask></mask><g stroke-linecap="round"><g transform="translate(463.13661433090465 485.41956359326014) rotate(0 6.2321992907526464 0)"><path d="M0 0 C3.07 0, 6.15 0, 12.46 0 M0 0 C2.84 0, 5.68 0, 12.46 0" stroke="#000000" stroke-width="2" fill="none"></path></g></g><mask></mask><g stroke-linecap="round"><g transform="translate(471.1737181420194 449.75701612430566) rotate(37.028882682348716 -10.564853881230249 20.51496772341926)"><path d="M0 0 C-1.28 0.34, -5.49 1.11, -7.69 2.02 C-9.89 2.94, -11.63 4.16, -13.21 5.48 C-14.79 6.79, -15.99 7.97, -17.18 9.91 C-18.37 11.84, -19.71 14.96, -20.36 17.08 C-21.01 19.19, -21.25 20.34, -21.08 22.58 C-20.91 24.82, -20.19 28.22, -19.34 30.52 C-18.49 32.83, -17.37 34.65, -15.98 36.41 C-14.58 38.16, -11.8 40.26, -10.97 41.03 M0 0 C-1.28 0.34, -5.49 1.11, -7.69 2.02 C-9.89 2.94, -11.63 4.16, -13.21 5.48 C-14.79 6.79, -15.99 7.97, -17.18 9.91 C-18.37 11.84, -19.71 14.96, -20.36 17.08 C-21.01 19.19, -21.25 20.34, -21.08 22.58 C-20.91 24.82, -20.19 28.22, -19.34 30.52 C-18.49 32.83, -17.37 34.65, -15.98 36.41 C-14.58 38.16, -11.8 40.26, -10.97 41.03" stroke="#000000" stroke-width="2" fill="none"></path></g></g><mask></mask><g stroke-linecap="round"><g transform="translate(487.6874399948606 467.20052910945947) rotate(217.02888268234867 -10.564853881230249 20.51496772341926)"><path d="M0 0 C-1.28 0.34, -5.49 1.11, -7.69 2.02 C-9.89 2.94, -11.63 4.16, -13.21 5.48 C-14.79 6.79, -15.99 7.97, -17.18 9.91 C-18.37 11.84, -19.71 14.96, -20.36 17.08 C-21.01 19.19, -21.25 20.34, -21.08 22.58 C-20.91 24.82, -20.19 28.22, -19.34 30.52 C-18.49 32.83, -17.37 34.65, -15.98 36.41 C-14.58 38.16, -11.8 40.26, -10.97 41.03 M0 0 C-1.28 0.34, -5.49 1.11, -7.69 2.02 C-9.89 2.94, -11.63 4.16, -13.21 5.48 C-14.79 6.79, -15.99 7.97, -17.18 9.91 C-18.37 11.84, -19.71 14.96, -20.36 17.08 C-21.01 19.19, -21.25 20.34, -21.08 22.58 C-20.91 24.82, -20.19 28.22, -19.34 30.52 C-18.49 32.83, -17.37 34.65, -15.98 36.41 C-14.58 38.16, -11.8 40.26, -10.97 41.03" stroke="#000000" stroke-width="2" fill="none"></path></g></g><mask></mask><g stroke-linecap="round"><g transform="translate(451.3528797409508 480.7920684693049) rotate(0 -4.330288579072658 3.096878097370336)"><path d="M0 0 C-0.99 1.88, -1.99 3.76, -3.27 6.19 M0 0 C-1.08 2.04, -2.15 4.07, -3.27 6.19 M-3.27 6.19 C-5.33 4.79, -7.39 3.38, -8.66 2.51 M-3.27 6.19 C-4.95 5.04, -6.64 3.89, -8.66 2.51" stroke="#000000" stroke-width="2" fill="none"></path></g></g><mask></mask><g stroke-linecap="round"><g transform="translate(494.2577125338057 470.5774994181297) rotate(167.4823380314929 -3.993307455361105 2.7289603177398476)"><path d="M0 0 C-1.19 1.73, -2.38 3.45, -3.76 5.46 M0 0 C-0.98 1.43, -1.97 2.85, -3.76 5.46 M-3.76 5.46 C-5.37 3.57, -6.98 1.69, -7.99 0.52 M-3.76 5.46 C-4.94 4.08, -6.11 2.71, -7.99 0.52" stroke="#000000" stroke-width="2" fill="none"></path></g></g><mask></mask><g transform="translate(431.6328125 515.0171403422869) rotate(0 37.5 12.5)"><text x="37.5" y="18" font-family="Virgil, Segoe UI Emoji" font-size="20px" fill="#000000" text-anchor="middle" style="white-space: pre;" direction="ltr">AppSync</text></g><g stroke-linecap="round" transform="translate(1288.8970794677737 429.13645050325454) rotate(0 32.54042053222645 32.540420532226506)"><path d="M0 0 C0 0, 0 0, 0 0 M0 0 C0 0, 0 0, 0 0 M0.13 12.04 C4.06 7.52, 7.99 3, 10.63 -0.03 M0.13 12.04 C2.49 9.33, 4.85 6.62, 10.63 -0.03 M0.27 24.08 C6 17.48, 11.74 10.89, 21.26 -0.07 M0.27 24.08 C6.73 16.65, 13.19 9.22, 21.26 -0.07 M-0.26 36.88 C7 28.53, 14.25 20.18, 31.89 -0.1 M-0.26 36.88 C9.92 25.17, 20.1 13.46, 31.89 -0.1 M-0.12 48.92 C10.81 36.34, 21.75 23.76, 42.52 -0.14 M-0.12 48.92 C14.92 31.61, 29.97 14.3, 42.52 -0.14 M0.01 60.96 C11.41 47.85, 22.8 34.74, 53.15 -0.17 M0.01 60.96 C11.44 47.81, 22.87 34.66, 53.15 -0.17 M4.08 68.47 C26.74 42.41, 49.4 16.34, 63.78 -0.21 M4.08 68.47 C21.61 48.31, 39.14 28.14, 63.78 -0.21 M14.71 68.44 C29.67 51.22, 44.63 34.01, 70.47 4.29 M14.71 68.44 C29.39 51.54, 44.08 34.65, 70.47 4.29 M25.34 68.4 C36.07 56.05, 46.81 43.71, 69.95 17.08 M25.34 68.4 C42.21 49, 59.07 29.6, 69.95 17.08 M35.97 68.37 C46.4 56.37, 56.82 44.38, 70.08 29.12 M35.97 68.37 C48.39 54.08, 60.8 39.8, 70.08 29.12 M46.6 68.33 C54.35 59.41, 62.11 50.49, 70.22 41.16 M46.6 68.33 C54 59.82, 61.41 51.3, 70.22 41.16 M57.23 68.3 C60.32 64.74, 63.41 61.19, 70.35 53.2 M57.23 68.3 C62.2 62.58, 67.18 56.85, 70.35 53.2 M0.23 65.28 C0.23 65.28, 0.23 65.28, 0.23 65.28 M0.23 65.28 C0.23 65.28, 0.23 65.28, 0.23 65.28 M12.27 65.15 C7.95 61.39, 3.63 57.64, 0.19 54.65 M12.27 65.15 C8.28 61.68, 4.3 58.22, 0.19 54.65 M24.31 65.01 C14.84 56.78, 5.38 48.56, 0.16 44.02 M24.31 65.01 C17.94 59.47, 11.56 53.93, 0.16 44.02 M36.35 64.88 C23.23 53.48, 10.11 42.07, 0.13 33.39 M36.35 64.88 C21.94 52.35, 7.52 39.82, 0.13 33.39 M49.15 65.4 C29.6 48.42, 10.06 31.43, 0.09 22.76 M49.15 65.4 C29.99 48.75, 10.83 32.1, 0.09 22.76 M61.19 65.27 C41.01 47.73, 20.83 30.19, 0.06 12.13 M61.19 65.27 C41.46 48.12, 21.74 30.98, 0.06 12.13 M68.7 61.2 C48.61 43.73, 28.51 26.27, 0.02 1.5 M68.7 61.2 C41.82 37.83, 14.94 14.47, 0.02 1.5 M68.67 50.57 C47.31 32, 25.95 13.44, 4.52 -5.19 M68.67 50.57 C55.59 39.2, 42.52 27.84, 4.52 -5.19 M68.63 39.94 C57.36 30.14, 46.09 20.34, 16.56 -5.33 M68.63 39.94 C54.53 27.68, 40.43 15.43, 16.56 -5.33 M68.6 29.31 C59.28 21.21, 49.97 13.12, 28.6 -5.46 M68.6 29.31 C56.58 18.86, 44.56 8.42, 28.6 -5.46 M68.56 18.68 C63.06 13.9, 57.56 9.12, 41.39 -4.94 M68.56 18.68 C60.62 11.78, 52.68 4.87, 41.39 -4.94 M68.53 8.05 C64.26 4.34, 60 0.63, 53.43 -5.07 M68.53 8.05 C65.05 5.02, 61.56 2, 53.43 -5.07" stroke="#4c6ef588" stroke-width="1" fill="none"></path><path d="M0 0 C22.2 0, 44.41 0, 65.08 0 M0 0 C23.23 0, 46.46 0, 65.08 0 M65.08 0 C65.08 21.17, 65.08 42.34, 65.08 65.08 M65.08 0 C65.08 18.44, 65.08 36.89, 65.08 65.08 M65.08 65.08 C39.89 65.08, 14.7 65.08, 0 65.08 M65.08 65.08 C51.46 65.08, 37.83 65.08, 0 65.08 M0 65.08 C0 44.06, 0 23.04, 0 0 M0 65.08 C0 41.97, 0 18.87, 0 0" stroke="#000000" stroke-width="2" fill="none"></path></g><g stroke-linecap="round"><g transform="translate(1325.0278801634981 444.41668098785453) rotate(0 6.8426058235760365 14.751091176351991)"><path d="M0 0 C2.35 -0.02, 4.69 -0.03, 11.29 -0.08 M0 0 C3.31 -0.02, 6.62 -0.05, 11.29 -0.08 M11.29 -0.08 C10.57 3.36, 9.84 6.8, 8.92 11.18 M11.29 -0.08 C10.38 4.26, 9.46 8.6, 8.92 11.18 M8.92 11.18 C12.15 11.16, 15.37 11.14, 17.04 11.13 M8.92 11.18 C11.91 11.16, 14.9 11.14, 17.04 11.13 M17.04 11.13 C13.75 14.91, 10.45 18.68, 0.95 29.58 M17.04 11.13 C13.69 14.98, 10.33 18.82, 0.95 29.58 M0.95 29.58 C1.91 25.04, 2.87 20.5, 4.5 12.79 M0.95 29.58 C2.3 23.21, 3.64 16.85, 4.5 12.79 M4.5 12.79 C2.5 12.82, 0.5 12.85, -3.35 12.91 M4.5 12.79 C2.42 12.82, 0.34 12.85, -3.35 12.91 M-3.35 12.91 C-2.59 9.98, -1.83 7.06, 0 0 M-3.35 12.91 C-2.12 8.15, -0.88 3.4, 0 0" stroke="#000000" stroke-width="2" fill="none"></path></g></g><mask></mask><g stroke-linecap="round"><g transform="translate(1331.2439561687838 441.3859697851624) rotate(0 -15.08316273700757 4.854738639168517)"><path d="M0 0 C-0.78 -0.22, -2.83 -0.97, -4.71 -1.32 C-6.58 -1.66, -8.8 -2.04, -11.24 -2.07 C-13.67 -2.09, -16.88 -1.86, -19.32 -1.45 C-21.77 -1.04, -24.41 -0.17, -25.92 0.38 C-27.44 0.94, -27.77 1.38, -28.41 1.89 C-29.04 2.4, -29.46 2.81, -29.75 3.42 C-30.03 4.04, -30.27 4.9, -30.12 5.58 C-29.98 6.26, -29.58 6.84, -28.9 7.5 C-28.21 8.16, -27.18 8.97, -26.04 9.52 C-24.9 10.07, -23.41 10.48, -22.04 10.81 C-20.68 11.14, -19.34 11.33, -17.86 11.49 C-16.38 11.65, -14.56 11.77, -13.14 11.78 C-11.73 11.78, -9.99 11.58, -9.36 11.54 M0 0 C-0.78 -0.22, -2.83 -0.97, -4.71 -1.32 C-6.58 -1.66, -8.8 -2.04, -11.24 -2.07 C-13.67 -2.09, -16.88 -1.86, -19.32 -1.45 C-21.77 -1.04, -24.41 -0.17, -25.92 0.38 C-27.44 0.94, -27.77 1.38, -28.41 1.89 C-29.04 2.4, -29.46 2.81, -29.75 3.42 C-30.03 4.04, -30.27 4.9, -30.12 5.58 C-29.98 6.26, -29.58 6.84, -28.9 7.5 C-28.21 8.16, -27.18 8.97, -26.04 9.52 C-24.9 10.07, -23.41 10.48, -22.04 10.81 C-20.68 11.14, -19.34 11.33, -17.86 11.49 C-16.38 11.65, -14.56 11.77, -13.14 11.78 C-11.73 11.78, -9.99 11.58, -9.36 11.54" stroke="#000000" stroke-width="2" fill="none"></path></g></g><mask></mask><g stroke-linecap="round"><g transform="translate(1301.2911324184079 446.00693745991043) rotate(0 -0.0759000701664263 15.725015039237292)"><path d="M0 0 C-0.03 5.24, -0.13 26.21, -0.15 31.45 M0 0 C-0.03 5.24, -0.13 26.21, -0.15 31.45" stroke="#000000" stroke-width="2" fill="none"></path></g></g><mask></mask><g stroke-linecap="round"><g transform="translate(1300.9674650855857 477.11171847452783) rotate(0 18.165458324679093 3.461030698902846)"><path d="M0 0 C0.07 0.26, 0.1 1.02, 0.43 1.53 C0.75 2.05, 1.23 2.57, 1.94 3.1 C2.64 3.63, 3.55 4.23, 4.65 4.71 C5.75 5.19, 7.2 5.63, 8.53 5.97 C9.85 6.3, 11.08 6.55, 12.6 6.71 C14.11 6.87, 15.85 6.92, 17.6 6.92 C19.35 6.93, 21.38 6.91, 23.08 6.74 C24.78 6.58, 26.27 6.33, 27.78 5.94 C29.3 5.55, 30.95 4.97, 32.16 4.41 C33.36 3.86, 34.34 3.31, 35.04 2.6 C35.73 1.9, 36.12 0.6, 36.33 0.2 M0 0 C0.07 0.26, 0.1 1.02, 0.43 1.53 C0.75 2.05, 1.23 2.57, 1.94 3.1 C2.64 3.63, 3.55 4.23, 4.65 4.71 C5.75 5.19, 7.2 5.63, 8.53 5.97 C9.85 6.3, 11.08 6.55, 12.6 6.71 C14.11 6.87, 15.85 6.92, 17.6 6.92 C19.35 6.93, 21.38 6.91, 23.08 6.74 C24.78 6.58, 26.27 6.33, 27.78 5.94 C29.3 5.55, 30.95 4.97, 32.16 4.41 C33.36 3.86, 34.34 3.31, 35.04 2.6 C35.73 1.9, 36.12 0.6, 36.33 0.2" stroke="#000000" stroke-width="2" fill="none"></path></g></g><mask></mask><g stroke-linecap="round"><g transform="translate(1337.3338447650267 477.41289526898277) rotate(0 -0.04008524370055966 -7.298939482208169)"><path d="M0 0 C-0.01 -2.43, -0.07 -12.16, -0.08 -14.6 M0 0 C-0.01 -2.43, -0.07 -12.16, -0.08 -14.6" stroke="#000000" stroke-width="2" fill="none"></path></g></g><mask></mask><g stroke-linecap="round"><g transform="translate(1301.0970678512078 454.41109903376105) rotate(0 10.664985931171941 3.235652743942893)"><path d="M0 0 C0.1 0.28, 0.16 1.1, 0.58 1.67 C1 2.24, 1.67 2.83, 2.53 3.4 C3.38 3.98, 4.63 4.74, 5.7 5.14 C6.78 5.53, 7.74 5.56, 8.96 5.77 C10.17 5.99, 11.56 6.33, 13 6.44 C14.43 6.54, 16.2 6.39, 17.59 6.38 C18.98 6.36, 20.71 6.34, 21.33 6.34 M0 0 C0.1 0.28, 0.16 1.1, 0.58 1.67 C1 2.24, 1.67 2.83, 2.53 3.4 C3.38 3.98, 4.63 4.74, 5.7 5.14 C6.78 5.53, 7.74 5.56, 8.96 5.77 C10.17 5.99, 11.56 6.33, 13 6.44 C14.43 6.54, 16.2 6.39, 17.59 6.38 C18.98 6.36, 20.71 6.34, 21.33 6.34" stroke="#000000" stroke-width="2" fill="none"></path></g></g><mask></mask><g stroke-linecap="round"><g transform="translate(1300.9827877725977 457.7735688861392) rotate(0 12.014454878583138 3.4215953763832374)"><path d="M0 0 C0.08 0.29, 0.07 1.16, 0.46 1.74 C0.85 2.32, 1.41 2.9, 2.32 3.48 C3.23 4.06, 4.57 4.75, 5.91 5.22 C7.26 5.69, 8.8 6.03, 10.41 6.3 C12.02 6.57, 13.9 6.77, 15.59 6.83 C17.27 6.89, 19.1 6.77, 20.51 6.66 C21.92 6.54, 23.44 6.24, 24.03 6.15 M0 0 C0.08 0.29, 0.07 1.16, 0.46 1.74 C0.85 2.32, 1.41 2.9, 2.32 3.48 C3.23 4.06, 4.57 4.75, 5.91 5.22 C7.26 5.69, 8.8 6.03, 10.41 6.3 C12.02 6.57, 13.9 6.77, 15.59 6.83 C17.27 6.89, 19.1 6.77, 20.51 6.66 C21.92 6.54, 23.44 6.24, 24.03 6.15" stroke="#000000" stroke-width="2" fill="none"></path></g></g><mask></mask><g stroke-linecap="round"><g transform="translate(1301.0343161709482 466.0306502544952) rotate(0 11.923246779587657 3.2599154132182946)"><path d="M0 0 C0.09 0.28, 0.18 1.14, 0.54 1.69 C0.89 2.24, 1.23 2.73, 2.12 3.32 C3.02 3.91, 4.44 4.78, 5.89 5.25 C7.33 5.72, 9.24 5.94, 10.8 6.15 C12.35 6.36, 13.59 6.46, 15.23 6.5 C16.86 6.55, 19.16 6.51, 20.6 6.41 C22.03 6.31, 23.3 6, 23.85 5.92 M0 0 C0.09 0.28, 0.18 1.14, 0.54 1.69 C0.89 2.24, 1.23 2.73, 2.12 3.32 C3.02 3.91, 4.44 4.78, 5.89 5.25 C7.33 5.72, 9.24 5.94, 10.8 6.15 C12.35 6.36, 13.59 6.46, 15.23 6.5 C16.86 6.55, 19.16 6.51, 20.6 6.41 C22.03 6.31, 23.3 6, 23.85 5.92" stroke="#000000" stroke-width="2" fill="none"></path></g></g><mask></mask><g stroke-linecap="round"><g transform="translate(1300.8080378041734 470.030448119772) rotate(0 18.330814841005008 2.749513812745988)"><path d="M0 0 C0.18 0.29, 0.47 1.15, 1.1 1.73 C1.73 2.32, 2.79 3.05, 3.77 3.53 C4.74 4.01, 5.39 4.2, 6.96 4.62 C8.54 5.04, 11.18 5.8, 13.23 6.05 C15.27 6.31, 17.35 6.21, 19.24 6.14 C21.13 6.08, 22.91 5.88, 24.57 5.65 C26.23 5.42, 27.69 5.18, 29.18 4.75 C30.68 4.33, 32.43 3.67, 33.53 3.08 C34.63 2.49, 35.25 1.85, 35.77 1.21 C36.3 0.58, 36.51 -0.4, 36.66 -0.72 M0 0 C0.18 0.29, 0.47 1.15, 1.1 1.73 C1.73 2.32, 2.79 3.05, 3.77 3.53 C4.74 4.01, 5.39 4.2, 6.96 4.62 C8.54 5.04, 11.18 5.8, 13.23 6.05 C15.27 6.31, 17.35 6.21, 19.24 6.14 C21.13 6.08, 22.91 5.88, 24.57 5.65 C26.23 5.42, 27.69 5.18, 29.18 4.75 C30.68 4.33, 32.43 3.67, 33.53 3.08 C34.63 2.49, 35.25 1.85, 35.77 1.21 C36.3 0.58, 36.51 -0.4, 36.66 -0.72" stroke="#000000" stroke-width="2" fill="none"></path></g></g><mask></mask><g stroke-linecap="round"><g transform="translate(1331.676274838046 470.22829449811456) rotate(0 2.7091546481840396 -1.7684364552388558)"><path d="M0 0 C0.65 -0.36, 3.03 -1.57, 3.93 -2.16 C4.83 -2.75, 5.17 -3.31, 5.42 -3.54 M0 0 C0.65 -0.36, 3.03 -1.57, 3.93 -2.16 C4.83 -2.75, 5.17 -3.31, 5.42 -3.54" stroke="#000000" stroke-width="2" fill="none"></path></g></g><mask></mask><g stroke-linecap="round"><g transform="translate(1304.316184792607 452.6420322766651) rotate(0 2.0975957205215536 2.2806300052176027)"><path d="M0 0 C1.55 0.61, 3.1 1.22, 4.34 1.72 M0 0 C1.41 0.56, 2.83 1.12, 4.34 1.72 M4.34 1.72 C4.31 2.52, 4.28 3.33, 4.23 4.56 M4.34 1.72 C4.3 2.82, 4.25 3.92, 4.23 4.56 M4.23 4.56 C3.31 4.21, 2.39 3.85, -0.15 2.86 M4.23 4.56 C2.81 4.01, 1.4 3.46, -0.15 2.86 M-0.15 2.86 C-0.1 1.84, -0.04 0.83, 0 0 M-0.15 2.86 C-0.1 1.94, -0.05 1.02, 0 0" stroke="#000000" stroke-width="2" fill="none"></path></g></g><mask></mask><g stroke-linecap="round"><g transform="translate(1304.3722865439693 464.4540918541986) rotate(0 2.0975957205215536 2.2806300052176027)"><path d="M0 0 C1.27 0.5, 2.55 1.01, 4.34 1.72 M0 0 C1.33 0.52, 2.65 1.05, 4.34 1.72 M4.34 1.72 C4.3 2.81, 4.25 3.91, 4.23 4.56 M4.34 1.72 C4.3 2.85, 4.25 3.98, 4.23 4.56 M4.23 4.56 C2.62 3.93, 1 3.31, -0.15 2.86 M4.23 4.56 C3.33 4.21, 2.43 3.86, -0.15 2.86 M-0.15 2.86 C-0.12 2.26, -0.09 1.67, 0 0 M-0.15 2.86 C-0.11 2.09, -0.07 1.31, 0 0" stroke="#000000" stroke-width="2" fill="none"></path></g></g><mask></mask><g stroke-linecap="round"><g transform="translate(1304.5267202711318 475.81676330868265) rotate(0 2.0975957205215536 2.2806300052176027)"><path d="M0 0 C1.37 0.54, 2.74 1.08, 4.34 1.72 M0 0 C1.12 0.44, 2.24 0.89, 4.34 1.72 M4.34 1.72 C4.32 2.32, 4.29 2.93, 4.23 4.56 M4.34 1.72 C4.31 2.61, 4.27 3.5, 4.23 4.56 M4.23 4.56 C2.74 3.99, 1.26 3.41, -0.15 2.86 M4.23 4.56 C3.21 4.17, 2.19 3.77, -0.15 2.86 M-0.15 2.86 C-0.12 2.22, -0.08 1.59, 0 0 M-0.15 2.86 C-0.09 1.78, -0.04 0.7, 0 0" stroke="#000000" stroke-width="2" fill="none"></path></g></g><mask></mask><g transform="translate(1269.9375 497.7449433261229) rotate(0 51.5 12.5)"><text x="0" y="18" font-family="Virgil, Segoe UI Emoji" font-size="20px" fill="#000000" text-anchor="start" style="white-space: pre;" direction="ltr">DynamoDB</text></g><g stroke-linecap="round" transform="translate(15.63567059976981 385.2676760856365) rotate(0 49.95004654718005 108.3841858755917)"><path d="M1.93 0.77 C25.5 0.37, 50.89 1.73, 99.95 -1.18 M0.72 -0.85 C31.97 1.63, 64.6 0.15, 99.4 0.41 M99.98 1.53 C98.76 73.95, 98.64 147.34, 101.2 215.78 M99.72 -0.32 C102.11 81.95, 101.38 162.58, 100.65 217.32 M99.32 216.88 C66.51 215.24, 35.34 216.47, 0.41 217.9 M100.66 216 C68.41 216.62, 37.22 216.18, 0.31 216.88 M0.38 215.05 C0.25 130, 0.61 46.29, 1.5 0.21 M0.53 216.46 C-0.39 138.88, -0.47 60.19, -0.36 0.78" stroke="#000000" stroke-width="2" fill="none"></path></g><g transform="translate(19.033481282189086 386.90107361081925) rotate(0 4.817659950263135 2.810301637653481)"><text x="4.817659950263122" y="3.6206032753069763" font-family="Virgil, Segoe UI Emoji" font-size="4.282364400233887px" fill="#000000" text-anchor="middle" style="white-space: pre;" direction="ltr">10:47</text></g><g stroke-linecap="round" transform="translate(103.4480114458716 387.5173380894315) rotate(0 4.540453326140863 2.071083973327461)"><path d="M0.41 -0.06 C3.03 0.52, 4.54 -0.57, 9.26 -0.33 M0.02 0.33 C2.23 -0.27, 3.57 0.26, 9.28 -0.27 M9.08 -0.09 C9.05 1.26, 9.39 2.91, 9.39 4.47 M9.25 0.17 C9.07 1.6, 9.25 3.3, 9.15 4.15 M8.94 3.28 C6.74 3.83, 3.12 4.66, 0.1 4.72 M8.91 3.95 C5.91 3.69, 3.29 4.12, 0.42 4.27 M0.19 3.78 C0.26 3.1, 0.35 2.11, 0.25 0.06 M-0.03 4.21 C-0.08 2.79, -0.11 1.72, -0.04 -0.13" stroke="#000000" stroke-width="2" fill="none"></path></g><g stroke-linecap="round" transform="translate(103.84629682535774 388.79185130378636) rotate(0 2.787997656402297 1.1151990625609756)"><path d="M1.26 0.42 L4 -0.89 L5.2 0.92 L1.08 0.62" stroke="none" stroke-width="0" fill="#000"></path><path d="M-0.04 0.47 C2.55 -0.01, 4.09 0.08, 5.37 -0.51 M0.2 0.2 C1.86 -0.14, 4.26 0.12, 5.41 0.22 M5.53 -0.02 C5.43 0.84, 5.47 1.53, 5.75 2.41 M5.67 0 C5.58 0.72, 5.64 1.28, 5.58 2.27 M5.04 2.68 C3.87 2.34, 2.87 2.29, 0.36 2.38 M5.46 2.1 C3.24 2.3, 1.41 2.47, 0.08 2.09 M-0.2 2.38 C0.02 1.7, 0.05 0.93, 0.03 0.03 M0.04 2.2 C-0.02 1.38, 0.11 0.6, -0.07 -0.01" stroke="transparent" stroke-width="2" fill="none"></path></g><g transform="translate(39.174588215060396 489.6147177214141) rotate(0 24.897383319102573 6.056120266808762)"><text x="24.897383319102584" y="8.112240533617474" font-family="Virgil, Segoe UI Emoji" font-size="9.635319900526245px" fill="#000" text-anchor="middle" style="white-space: pre;" direction="ltr">iPhone 11/X</text></g><g stroke-linecap="round"><g transform="translate(42.54379313902592 386.22594928196173) rotate(0 23.224485096665404 3.1696389379767425)" fill-rule="evenodd"><path d="M0 0 C0 0, 0 0, 0 0 M0 0 C0 0, 0 0, 0 0 M5.63 6.05 C7.26 3.87, 8.62 2.11, 9.87 0.61 M5.43 6.26 C6.87 4.67, 7.85 2.61, 10.46 -0.22 M15.63 7.76 C15.59 6.07, 16.51 4.68, 20.37 0.59 M15 7.55 C16.67 5.52, 18.38 2.89, 21.43 -0.19 M25.83 6.11 C27.59 5.32, 29.47 2.17, 31.49 -0.27 M26.03 7.04 C27.76 5.01, 28.96 3.19, 32.1 -0.09 M36.96 5.59 C38.33 5.47, 38.79 4.57, 39.51 2.82 M37.28 5.83 C38.43 4.93, 39.14 3.74, 39.79 2.84 M3.82 4.76 C3.82 4.76, 3.82 4.76, 3.82 4.76 M3.82 4.76 C3.82 4.76, 3.82 4.76, 3.82 4.76 M14.65 6 C13.88 0.92, 9.45 0.66, 5.87 -5.91 M15.75 4.35 C12.85 1.95, 11.83 0.4, 4.36 -4.62 M27.07 4.7 C24.24 2.23, 22.56 0.53, 17.31 -6.56 M26.66 4.52 C23.6 1.29, 21.51 -1.73, 16.31 -5.95 M38.32 5.08 C36.56 2.83, 34.95 0.65, 28.06 -5.97 M39.63 4.33 C34.54 0.36, 31.43 -3.87, 28.4 -6.15" stroke="#000" stroke-width="1" fill="none"></path><path d="M1.01 0.73 C8.46 0.66, 39.12 -1.24, 45.19 -0.5 C51.27 0.25, 43.95 4, 37.46 5.21 C30.96 6.41, 12.64 7.57, 6.23 6.71 C-0.18 5.85, -0.12 1.02, -1.02 0.04 M0.08 0.07 C7.32 0.15, 38.14 -0.37, 44.26 0.67 C50.38 1.7, 43.21 5.64, 36.81 6.29 C30.42 6.95, 11.93 5.58, 5.9 4.61 C-0.13 3.64, 1.77 1.18, 0.64 0.46" stroke="#000" stroke-width="2" fill="none"></path></g></g><mask></mask><g stroke-linecap="round" transform="translate(444.28770446777344 186.04546190454232) rotate(0 32.540420532226506 32.540420532226506)"><path d="M0 0 C0 0, 0 0, 0 0 M0 0 C0 0, 0 0, 0 0 M0.13 12.04 C4.25 7.3, 8.37 2.56, 10.63 -0.03 M0.13 12.04 C3.1 8.63, 6.06 5.22, 10.63 -0.03 M0.27 24.08 C7.42 15.85, 14.57 7.63, 21.26 -0.07 M0.27 24.08 C5.03 18.61, 9.79 13.13, 21.26 -0.07 M-0.26 36.88 C12.31 22.42, 24.88 7.96, 31.89 -0.1 M-0.26 36.88 C7.72 27.71, 15.69 18.53, 31.89 -0.1 M-0.12 48.92 C13.93 32.75, 27.98 16.59, 42.52 -0.14 M-0.12 48.92 C12.21 34.73, 24.55 20.54, 42.52 -0.14 M0.01 60.96 C16.52 41.96, 33.03 22.97, 53.15 -0.17 M0.01 60.96 C18.47 39.73, 36.92 18.5, 53.15 -0.17 M4.08 68.47 C19.8 50.39, 35.52 32.31, 63.78 -0.21 M4.08 68.47 C25.94 43.32, 47.81 18.16, 63.78 -0.21 M14.71 68.44 C31.25 49.4, 47.8 30.37, 70.47 4.29 M14.71 68.44 C33.2 47.17, 51.68 25.9, 70.47 4.29 M25.34 68.4 C39.05 52.63, 52.75 36.87, 69.95 17.08 M25.34 68.4 C41.55 49.75, 57.77 31.1, 69.95 17.08 M35.97 68.37 C49.09 53.28, 62.2 38.19, 70.08 29.12 M35.97 68.37 C43.17 60.08, 50.38 51.8, 70.08 29.12 M46.6 68.33 C51.73 62.43, 56.87 56.52, 70.22 41.16 M46.6 68.33 C54.77 58.93, 62.95 49.53, 70.22 41.16 M57.23 68.3 C61.17 63.77, 65.11 59.23, 70.35 53.2 M57.23 68.3 C60.59 64.43, 63.95 60.57, 70.35 53.2 M0.23 65.28 C0.23 65.28, 0.23 65.28, 0.23 65.28 M0.23 65.28 C0.23 65.28, 0.23 65.28, 0.23 65.28 M12.27 65.15 C9.12 62.41, 5.96 59.66, 0.19 54.65 M12.27 65.15 C7.49 60.99, 2.72 56.84, 0.19 54.65 M24.31 65.01 C19.18 60.55, 14.04 56.09, 0.16 44.02 M24.31 65.01 C16.45 58.18, 8.6 51.36, 0.16 44.02 M36.35 64.88 C22.79 53.09, 9.23 41.31, 0.13 33.39 M36.35 64.88 C28.45 58.01, 20.55 51.14, 0.13 33.39 M49.15 65.4 C31.35 49.93, 13.55 34.46, 0.09 22.76 M49.15 65.4 C36.93 54.78, 24.71 44.16, 0.09 22.76 M61.19 65.27 C46.64 52.63, 32.1 39.99, 0.06 12.13 M61.19 65.27 C38.45 45.51, 15.72 25.74, 0.06 12.13 M68.7 61.2 C47.48 42.76, 26.27 24.32, 0.02 1.5 M68.7 61.2 C54.08 48.49, 39.47 35.79, 0.02 1.5 M68.67 50.57 C46.81 31.57, 24.95 12.57, 4.52 -5.19 M68.67 50.57 C45.3 30.26, 21.93 9.95, 4.52 -5.19 M68.63 39.94 C49.88 23.64, 31.13 7.34, 16.56 -5.33 M68.63 39.94 C54.13 27.33, 39.62 14.72, 16.56 -5.33 M68.6 29.31 C58.12 20.2, 47.63 11.09, 28.6 -5.46 M68.6 29.31 C54.12 16.73, 39.65 4.15, 28.6 -5.46 M68.56 18.68 C62.7 13.58, 56.83 8.48, 41.39 -4.94 M68.56 18.68 C61.29 12.36, 54.02 6.04, 41.39 -4.94 M68.53 8.05 C64.42 4.48, 60.32 0.92, 53.43 -5.07 M68.53 8.05 C62.63 2.92, 56.73 -2.21, 53.43 -5.07" stroke="#fa525288" stroke-width="1" fill="none"></path><path d="M0 0 C16.29 0, 32.58 0, 65.08 0 M0 0 C16.81 0, 33.63 0, 65.08 0 M65.08 0 C65.08 15.14, 65.08 30.28, 65.08 65.08 M65.08 0 C65.08 15.97, 65.08 31.93, 65.08 65.08 M65.08 65.08 C46.22 65.08, 27.36 65.08, 0 65.08 M65.08 65.08 C44.34 65.08, 23.6 65.08, 0 65.08 M0 65.08 C0 48.1, 0 31.12, 0 0 M0 65.08 C0 41.71, 0 18.34, 0 0" stroke="#000000" stroke-width="2" fill="none"></path></g><g stroke-linecap="round" transform="translate(486.7003906250002 224.91830736352665) rotate(0 9.707711791992153 9.707711791992153)"><path d="M19.42 9.71 C19.42 10.27, 19.37 10.84, 19.27 11.39 C19.17 11.95, 19.02 12.5, 18.83 13.03 C18.64 13.56, 18.4 14.07, 18.11 14.56 C17.83 15.05, 17.51 15.52, 17.14 15.95 C16.78 16.38, 16.38 16.78, 15.95 17.14 C15.52 17.51, 15.05 17.83, 14.56 18.11 C14.07 18.4, 13.56 18.64, 13.03 18.83 C12.5 19.02, 11.95 19.17, 11.39 19.27 C10.84 19.37, 10.27 19.42, 9.71 19.42 C9.15 19.42, 8.58 19.37, 8.02 19.27 C7.47 19.17, 6.92 19.02, 6.39 18.83 C5.86 18.64, 5.34 18.4, 4.85 18.11 C4.37 17.83, 3.9 17.51, 3.47 17.14 C3.04 16.78, 2.63 16.38, 2.27 15.95 C1.91 15.52, 1.58 15.05, 1.3 14.56 C1.02 14.07, 0.78 13.56, 0.59 13.03 C0.39 12.5, 0.25 11.95, 0.15 11.39 C0.05 10.84, 0 10.27, 0 9.71 C0 9.15, 0.05 8.58, 0.15 8.02 C0.25 7.47, 0.39 6.92, 0.59 6.39 C0.78 5.86, 1.02 5.34, 1.3 4.85 C1.58 4.37, 1.91 3.9, 2.27 3.47 C2.63 3.04, 3.04 2.63, 3.47 2.27 C3.9 1.91, 4.37 1.58, 4.85 1.3 C5.34 1.02, 5.86 0.78, 6.39 0.59 C6.92 0.39, 7.47 0.25, 8.02 0.15 C8.58 0.05, 9.15 0, 9.71 0 C10.27 0, 10.84 0.05, 11.39 0.15 C11.95 0.25, 12.5 0.39, 13.03 0.59 C13.56 0.78, 14.07 1.02, 14.56 1.3 C15.05 1.58, 15.52 1.91, 15.95 2.27 C16.38 2.63, 16.78 3.04, 17.14 3.47 C17.51 3.9, 17.83 4.37, 18.11 4.85 C18.4 5.34, 18.64 5.86, 18.83 6.39 C19.02 6.92, 19.17 7.47, 19.27 8.02 C19.37 8.58, 19.39 9.43, 19.42 9.71 C19.44 9.99, 19.44 9.43, 19.42 9.71" stroke="#000000" stroke-width="2" fill="none"></path></g><g stroke-linecap="round"><g transform="translate(491.38544311523447 235.605200063722) rotate(0 5.367214965820324 -0.4217163085937443)"><path d="M0 0 C1.32 1.31, 2.64 2.63, 3.49 3.48 M0 0 C1.09 1.09, 2.18 2.18, 3.49 3.48 M3.49 3.48 C6.17 0.59, 8.86 -2.3, 10.73 -4.32 M3.49 3.48 C6.09 0.67, 8.7 -2.13, 10.73 -4.32" stroke="#000000" stroke-width="2" fill="none"></path></g></g><mask></mask><g stroke-linecap="round"><g transform="translate(485.4800659179691 229.9196470852063) rotate(0 1.7874328613281136 -11.838735961914054)"><path d="M0 0 C-2.93 -0.02, -5.85 -0.05, -8.88 -0.08 M0 0 C-2.8 -0.02, -5.61 -0.05, -8.88 -0.08 M-8.88 -0.08 C-8.95 -5.4, -9.01 -10.73, -9.17 -23.51 M-8.88 -0.08 C-8.97 -7.04, -9.05 -14.01, -9.17 -23.51 M-9.17 -23.51 C-0.5 -23.58, 8.17 -23.64, 12.58 -23.68 M-9.17 -23.51 C-2.52 -23.56, 4.13 -23.61, 12.58 -23.68 M12.58 -23.68 C12.62 -19.46, 12.66 -15.24, 12.74 -6.29 M12.58 -23.68 C12.62 -19.12, 12.66 -14.57, 12.74 -6.29" stroke="#000000" stroke-width="2" fill="none"></path></g></g><mask></mask><g stroke-linecap="round" transform="translate(482.54080200195335 208.8946104641126) rotate(0 4.962973022460972 4.962973022460972)"><path d="M0.88 2.09 C0.88 2.09, 0.88 2.09, 0.88 2.09 M0.88 2.09 C0.88 2.09, 0.88 2.09, 0.88 2.09 M4.3 10.36 C6.1 8.28, 7.91 6.2, 10.2 3.57 M4.3 10.36 C5.71 8.73, 7.12 7.11, 10.2 3.57" stroke="#fa525288" stroke-width="1" fill="none"></path><path d="M9.93 4.96 C9.93 5.25, 9.9 5.54, 9.85 5.82 C9.8 6.11, 9.72 6.39, 9.63 6.66 C9.53 6.93, 9.4 7.2, 9.26 7.44 C9.12 7.69, 8.95 7.93, 8.76 8.15 C8.58 8.37, 8.37 8.58, 8.15 8.76 C7.93 8.95, 7.69 9.12, 7.44 9.26 C7.2 9.4, 6.93 9.53, 6.66 9.63 C6.39 9.72, 6.11 9.8, 5.82 9.85 C5.54 9.9, 5.25 9.93, 4.96 9.93 C4.68 9.93, 4.38 9.9, 4.1 9.85 C3.82 9.8, 3.54 9.72, 3.27 9.63 C3 9.53, 2.73 9.4, 2.48 9.26 C2.23 9.12, 1.99 8.95, 1.77 8.76 C1.55 8.58, 1.35 8.37, 1.16 8.15 C0.98 7.93, 0.81 7.69, 0.66 7.44 C0.52 7.2, 0.4 6.93, 0.3 6.66 C0.2 6.39, 0.13 6.11, 0.08 5.82 C0.03 5.54, 0 5.25, 0 4.96 C0 4.68, 0.03 4.38, 0.08 4.1 C0.13 3.82, 0.2 3.54, 0.3 3.27 C0.4 3, 0.52 2.73, 0.66 2.48 C0.81 2.23, 0.98 1.99, 1.16 1.77 C1.35 1.55, 1.55 1.35, 1.77 1.16 C1.99 0.98, 2.23 0.81, 2.48 0.66 C2.73 0.52, 3 0.4, 3.27 0.3 C3.54 0.2, 3.82 0.13, 4.1 0.08 C4.38 0.03, 4.68 0, 4.96 0 C5.25 0, 5.54 0.03, 5.82 0.08 C6.11 0.13, 6.39 0.2, 6.66 0.3 C6.93 0.4, 7.2 0.52, 7.44 0.66 C7.69 0.81, 7.93 0.98, 8.15 1.16 C8.37 1.35, 8.58 1.55, 8.76 1.77 C8.95 1.99, 9.12 2.23, 9.26 2.48 C9.4 2.73, 9.53 3, 9.63 3.27 C9.72 3.54, 9.8 3.82, 9.85 4.1 C9.9 4.38, 9.91 4.82, 9.93 4.96 C9.94 5.11, 9.94 4.82, 9.93 4.96" stroke="#000000" stroke-width="2" fill="none"></path></g><g stroke-linecap="round"><g transform="translate(479.2210144042972 228.28853888677088) rotate(0 7.641641235351585 -4.5337061065086175)"><path d="M0 0 C0.38 -0.96, 1.2 -4.29, 2.3 -5.75 C3.41 -7.22, 5.38 -8.29, 6.65 -8.79 C7.92 -9.28, 8.82 -9.05, 9.91 -8.7 C11.01 -8.35, 12.34 -7.41, 13.24 -6.7 C14.13 -5.99, 14.94 -4.83, 15.28 -4.45 M0 0 C0.38 -0.96, 1.2 -4.29, 2.3 -5.75 C3.41 -7.22, 5.38 -8.29, 6.65 -8.79 C7.92 -9.28, 8.82 -9.05, 9.91 -8.7 C11.01 -8.35, 12.34 -7.41, 13.24 -6.7 C14.13 -5.99, 14.94 -4.83, 15.28 -4.45" stroke="#000000" stroke-width="2" fill="none"></path></g></g><mask></mask><g stroke-linecap="round"><g transform="translate(455.0540161132815 211.62666917993295) rotate(0 8.771347045898438 0.019688415527340908)"><path d="M0 0 C2.92 0.01, 14.62 0.03, 17.54 0.04 M0 0 C2.92 0.01, 14.62 0.03, 17.54 0.04" stroke="#000000" stroke-width="2" fill="none"></path></g></g><mask></mask><g stroke-linecap="round"><g transform="translate(455.232998657227 216.2296705837415) rotate(0 5.167608642578102 0)"><path d="M0 0 C1.72 0, 8.61 0, 10.34 0 M0 0 C1.72 0, 8.61 0, 10.34 0" stroke="#000000" stroke-width="2" fill="none"></path></g></g><mask></mask><g stroke-linecap="round"><g transform="translate(468.11086425781286 216.07816759301897) rotate(0 2.223626708984341 0)"><path d="M0 0 C0.74 0, 3.71 0, 4.45 0 M0 0 C0.74 0, 3.71 0, 4.45 0" stroke="#000000" stroke-width="2" fill="none"></path></g></g><mask></mask><g stroke-linecap="round"><g transform="translate(504.3880752778391 224.63132534568706) rotate(0 -26.949784340223005 -4.560130289738424)"><path d="M0 0 C0 -2.18, 0.31 -9.7, 0.01 -13.1 C-0.29 -16.49, -0.21 -18.7, -1.79 -20.36 C-3.38 -22.01, -5.4 -22.57, -9.49 -23.01 C-13.58 -23.46, -20.62 -23.07, -26.34 -23.02 C-32.06 -22.98, -39.57 -23.16, -43.82 -22.75 C-48.06 -22.35, -50.15 -22.2, -51.82 -20.59 C-53.49 -18.97, -53.48 -15.76, -53.84 -13.06 C-54.19 -10.37, -53.98 -7.33, -53.97 -4.43 C-53.97 -1.53, -54.14 1.77, -53.82 4.34 C-53.5 6.92, -53.51 9.43, -52.06 11.02 C-50.61 12.61, -50.19 13.38, -45.1 13.87 C-40.02 14.36, -25.49 13.93, -21.56 13.94 M0 0 C0 -2.18, 0.31 -9.7, 0.01 -13.1 C-0.29 -16.49, -0.21 -18.7, -1.79 -20.36 C-3.38 -22.01, -5.4 -22.57, -9.49 -23.01 C-13.58 -23.46, -20.62 -23.07, -26.34 -23.02 C-32.06 -22.98, -39.57 -23.16, -43.82 -22.75 C-48.06 -22.35, -50.15 -22.2, -51.82 -20.59 C-53.49 -18.97, -53.48 -15.76, -53.84 -13.06 C-54.19 -10.37, -53.98 -7.33, -53.97 -4.43 C-53.97 -1.53, -54.14 1.77, -53.82 4.34 C-53.5 6.92, -53.51 9.43, -52.06 11.02 C-50.61 12.61, -50.19 13.38, -45.1 13.87 C-40.02 14.36, -25.49 13.93, -21.56 13.94" stroke="#000000" stroke-width="2" fill="none"></path></g></g><mask></mask><g transform="translate(441.328125 255.3203069248351) rotate(0 35.5 12.5)"><text x="35.5" y="18" font-family="Virgil, Segoe UI Emoji" font-size="20px" fill="#000000" text-anchor="middle" style="white-space: pre;" direction="ltr">Cognito</text></g><g stroke-linecap="round"><g transform="translate(475.08874297094235 445.6086656646888) rotate(0 -0.29351715070799855 -82.65247648432853)"><path d="M0.44 0.02 C0.58 -27.43, 0.01 -137.79, 0.13 -165.33 M-0.8 -1.01 C-0.76 -28.31, -1.23 -137.16, -0.97 -164.39" stroke="#000000" stroke-width="1" fill="none"></path></g><g transform="translate(475.08874297094235 445.6086656646888) rotate(0 -0.29351715070799855 -82.65247648432853)"><path d="M9.29 -136.65 C5.07 -141.57, 2.87 -148.64, -0.3 -162.61 M8.26 -136.1 C6.83 -141.3, 5.82 -148.93, -0.15 -163.63" stroke="#000000" stroke-width="1" fill="none"></path></g><g transform="translate(475.08874297094235 445.6086656646888) rotate(0 -0.29351715070799855 -82.65247648432853)"><path d="M-11.23 -136.68 C-10.61 -141.67, -7.95 -148.74, -0.3 -162.61 M-12.26 -136.13 C-9.27 -141.32, -5.85 -148.94, -0.15 -163.63" stroke="#000000" stroke-width="1" fill="none"></path></g></g><mask></mask><g stroke-linecap="round"><g transform="translate(459.703125 285.2180406646887) rotate(0 0.27156639197011145 79.9291189952055)"><path d="M0.82 -0.88 C0.94 25.58, 0.66 132.71, 0.33 159.76 M-0.21 1.28 C-0.14 28.36, -0.46 134.38, -0.2 160.73" stroke="#000000" stroke-width="1" fill="none"></path></g><g transform="translate(459.703125 285.2180406646887) rotate(0 0.27156639197011145 79.9291189952055)"><path d="M-11.99 133.91 C-9.34 138.82, -3.83 145.68, -0.24 160.92 M-11.2 133.45 C-7.79 140.11, -3.62 148.19, -0.62 160.22" stroke="#000000" stroke-width="1" fill="none"></path></g><g transform="translate(459.703125 285.2180406646887) rotate(0 0.27156639197011145 79.9291189952055)"><path d="M8.53 133.86 C5.73 138.92, 5.77 145.79, -0.24 160.92 M9.32 133.4 C6.92 139.89, 5.27 147.99, -0.62 160.22" stroke="#000000" stroke-width="1" fill="none"></path></g></g><mask></mask><g stroke-linecap="round" transform="translate(733.1086000950911 83.49365712229735) rotate(0 18.249294383413485 18.231818963523338)"><path d="M0 0 C0 0, 0 0, 0 0 M0 0 C0 0, 0 0, 0 0 M0.13 12.04 C3.51 8.16, 6.89 4.27, 10.63 -0.03 M0.13 12.04 C3.35 8.34, 6.58 4.63, 10.63 -0.03 M0.27 24.08 C7.65 15.59, 15.03 7.1, 21.26 -0.07 M0.27 24.08 C4.59 19.11, 8.92 14.13, 21.26 -0.07 M-0.26 36.88 C12.17 22.59, 24.59 8.29, 31.89 -0.1 M-0.26 36.88 C11.37 23.51, 22.99 10.14, 31.89 -0.1 M10.37 36.84 C19.52 26.32, 28.67 15.79, 39.9 2.88 M10.37 36.84 C19.13 26.77, 27.88 16.71, 39.9 2.88 M21 36.81 C26.54 30.44, 32.07 24.08, 40.03 14.92 M21 36.81 C28.17 28.56, 35.34 20.31, 40.03 14.92 M31.63 36.77 C33.99 34.06, 36.35 31.34, 40.16 26.96 M31.63 36.77 C33.49 34.63, 35.35 32.49, 40.16 26.96 M0.06 36.51 C0.06 36.51, 0.06 36.51, 0.06 36.51 M0.06 36.51 C0.06 36.51, 0.06 36.51, 0.06 36.51 M12.1 36.38 C8.36 33.13, 4.63 29.89, 0.02 25.88 M12.1 36.38 C8.12 32.92, 4.13 29.45, 0.02 25.88 M24.14 36.25 C14.76 28.09, 5.38 19.94, -0.01 15.25 M24.14 36.25 C16.06 29.22, 7.97 22.19, -0.01 15.25 M36.18 36.12 C24.42 25.89, 12.66 15.67, -0.04 4.62 M36.18 36.12 C22.36 24.1, 8.53 12.08, -0.04 4.62 M36.9 26.14 C24.5 15.36, 12.1 4.58, 2.94 -3.38 M36.9 26.14 C29.2 19.45, 21.5 12.75, 2.94 -3.38 M36.87 15.51 C30.33 9.83, 23.8 4.15, 14.98 -3.51 M36.87 15.51 C30.01 9.55, 23.15 3.58, 14.98 -3.51 M36.83 4.88 C33.41 1.91, 30 -1.06, 27.02 -3.65 M36.83 4.88 C33.12 1.66, 29.42 -1.57, 27.02 -3.65" stroke="#fd7e1488" stroke-width="1" fill="none"></path><path d="M0 0 C8.94 0, 17.87 0, 36.5 0 M0 0 C14.25 0, 28.51 0, 36.5 0 M36.5 0 C36.5 10.83, 36.5 21.66, 36.5 36.46 M36.5 0 C36.5 13.77, 36.5 27.54, 36.5 36.46 M36.5 36.46 C24.52 36.46, 12.55 36.46, 0 36.46 M36.5 36.46 C27.9 36.46, 19.31 36.46, 0 36.46 M0 36.46 C0 29.05, 0 21.64, 0 0 M0 36.46 C0 23.16, 0 9.86, 0 0" stroke="#000000" stroke-width="2" fill="none"></path></g><g stroke-linecap="round"><g transform="translate(747.2588871083599 98.63269408571267) rotate(0 -1.742102157413001 7.614683464726781)"><path d="M0 0 C-2.77 5.55, -5.55 11.1, -7.21 14.42 M0 0 C-2.34 4.69, -4.69 9.38, -7.21 14.42 M-7.21 14.42 C-5.07 14.67, -2.93 14.92, -0.29 15.23 M-7.21 14.42 C-5.25 14.65, -3.29 14.88, -0.29 15.23 M-0.29 15.23 C0.87 12.99, 2.02 10.75, 3.72 7.46 M-0.29 15.23 C1.14 12.46, 2.57 9.69, 3.72 7.46 M3.72 7.46 C2.72 5.23, 1.71 2.99, 0.51 0.32 M3.72 7.46 C2.73 5.25, 1.74 3.04, 0.51 0.32" stroke="#000000" stroke-width="2" fill="none"></path></g></g><mask></mask><g stroke-linecap="round"><g transform="translate(761.1235280283386 107.63374424288713) rotate(0 -7.217079046196773 -6.228316772279037)"><path d="M0 0 C-2.84 -6.15, -5.67 -12.29, -8.47 -18.36 M0 0 C-1.78 -3.85, -3.55 -7.7, -8.47 -18.36 M-8.47 -18.36 C-10.72 -18.45, -12.98 -18.54, -16.52 -18.68 M-8.47 -18.36 C-11.47 -18.48, -14.46 -18.6, -16.52 -18.68 M-16.52 -18.68 C-16.64 -17.46, -16.76 -16.24, -17.09 -13.02 M-16.52 -18.68 C-16.73 -16.54, -16.95 -14.39, -17.09 -13.02 M-17.09 -13.02 C-15.93 -12.86, -14.76 -12.7, -12.96 -12.46 M-17.09 -13.02 C-16.09 -12.89, -15.09 -12.75, -12.96 -12.46 M-12.96 -12.46 C-10.29 -6.69, -7.62 -0.92, -4.45 5.9 M-12.96 -12.46 C-11.24 -8.73, -9.51 -5, -4.45 5.9 M-4.45 5.9 C-2.23 6.01, 0 6.12, 2.09 6.23 M-4.45 5.9 C-2.22 6.01, 0.01 6.12, 2.09 6.23 M2.09 6.23 C2.24 4.68, 2.4 3.13, 2.65 0.57 M2.09 6.23 C2.3 4.08, 2.52 1.94, 2.65 0.57 M2.65 0.57 C2.54 0.45, 2.42 0.34, 2.09 0 M2.65 0.57 C2.49 0.4, 2.33 0.24, 2.09 0" stroke="#000000" stroke-width="2" fill="none"></path></g></g><mask></mask><g transform="translate(698.2734375 122.76762756553683) rotate(0 52.940692564371716 7.0776326957716265)"><text x="52.940692564371744" y="10.155265391543248" font-family="Virgil, Segoe UI Emoji" font-size="11.324212313234598px" fill="#5c940d" text-anchor="middle" style="white-space: pre;" direction="ltr">createUserAccount</text></g><g stroke-linecap="round" transform="translate(672.4695077474926 71.01171875) rotate(0 144.89963287750743 82.27272816468871)"><path d="M0 0 C113.4 0, 226.79 0, 289.8 0 M289.8 0 C289.8 57.34, 289.8 114.68, 289.8 164.55 M289.8 164.55 C228.74 164.55, 167.68 164.55, 0 164.55 M0 164.55 C0 121.67, 0 78.8, 0 0" stroke="#0091e2" stroke-width="2.5" fill="none" stroke-dasharray="8 10"></path></g><g transform="translate(745.95703125 238.29225941468871) rotate(0 54 12.5)"><text x="0" y="18" font-family="Virgil, Segoe UI Emoji" font-size="20px" fill="#000000" text-anchor="start" style="white-space: pre;" direction="ltr">user stack</text></g><g stroke-linecap="round" transform="translate(862.8280637807193 83.34326649729735) rotate(0 18.249294383413485 18.231818963523338)"><path d="M0 0 C0 0, 0 0, 0 0 M0 0 C0 0, 0 0, 0 0 M0.13 12.04 C3.32 8.37, 6.51 4.7, 10.63 -0.03 M0.13 12.04 C2.95 8.8, 5.77 5.56, 10.63 -0.03 M0.27 24.08 C6.04 17.44, 11.81 10.8, 21.26 -0.07 M0.27 24.08 C8.32 14.82, 16.37 5.56, 21.26 -0.07 M-0.26 36.88 C10.24 24.81, 20.73 12.74, 31.89 -0.1 M-0.26 36.88 C11.72 23.1, 23.69 9.33, 31.89 -0.1 M10.37 36.84 C19.18 26.71, 27.98 16.59, 39.9 2.88 M10.37 36.84 C20.5 25.2, 30.62 13.55, 39.9 2.88 M21 36.81 C28.31 28.41, 35.61 20, 40.03 14.92 M21 36.81 C26.27 30.76, 31.53 24.7, 40.03 14.92 M31.63 36.77 C33.55 34.57, 35.47 32.37, 40.16 26.96 M31.63 36.77 C33.65 34.46, 35.66 32.14, 40.16 26.96 M0.06 36.51 C0.06 36.51, 0.06 36.51, 0.06 36.51 M0.06 36.51 C0.06 36.51, 0.06 36.51, 0.06 36.51 M12.1 36.38 C8.05 32.87, 4.01 29.35, 0.02 25.88 M12.1 36.38 C8.19 32.98, 4.28 29.58, 0.02 25.88 M24.14 36.25 C15.26 28.53, 6.38 20.81, -0.01 15.25 M24.14 36.25 C18.43 31.28, 12.71 26.31, -0.01 15.25 M36.18 36.12 C26.42 27.63, 16.66 19.15, -0.04 4.62 M36.18 36.12 C23.24 24.87, 10.31 13.62, -0.04 4.62 M36.9 26.14 C25.88 16.56, 14.86 6.98, 2.94 -3.38 M36.9 26.14 C28.58 18.91, 20.26 11.68, 2.94 -3.38 M36.87 15.51 C31.89 11.18, 26.91 6.85, 14.98 -3.51 M36.87 15.51 C28.6 8.32, 20.33 1.13, 14.98 -3.51 M36.83 4.88 C33.14 1.67, 29.44 -1.55, 27.02 -3.65 M36.83 4.88 C33.32 1.83, 29.8 -1.23, 27.02 -3.65" stroke="#fd7e1488" stroke-width="1" fill="none"></path><path d="M0 0 C7.52 0, 15.05 0, 36.5 0 M0 0 C9.54 0, 19.08 0, 36.5 0 M36.5 0 C36.5 12.98, 36.5 25.96, 36.5 36.46 M36.5 0 C36.5 9.19, 36.5 18.38, 36.5 36.46 M36.5 36.46 C28.79 36.46, 21.08 36.46, 0 36.46 M36.5 36.46 C26.4 36.46, 16.3 36.46, 0 36.46 M0 36.46 C0 27.37, 0 18.27, 0 0 M0 36.46 C0 23.17, 0 9.88, 0 0" stroke="#000000" stroke-width="2" fill="none"></path></g><g stroke-linecap="round"><g transform="translate(876.9783507939883 98.48230346071267) rotate(0 -1.742102157413001 7.614683464726781)"><path d="M0 0 C-2.24 4.47, -4.47 8.94, -7.21 14.42 M0 0 C-2.07 4.14, -4.14 8.28, -7.21 14.42 M-7.21 14.42 C-4.94 14.68, -2.68 14.95, -0.29 15.23 M-7.21 14.42 C-4.45 14.74, -1.68 15.07, -0.29 15.23 M-0.29 15.23 C1.24 12.27, 2.77 9.3, 3.72 7.46 M-0.29 15.23 C0.54 13.62, 1.37 12.02, 3.72 7.46 M3.72 7.46 C3.01 5.87, 2.29 4.27, 0.51 0.32 M3.72 7.46 C2.69 5.16, 1.65 2.86, 0.51 0.32" stroke="#000000" stroke-width="2" fill="none"></path></g></g><mask></mask><g stroke-linecap="round"><g transform="translate(890.842991713967 107.48335361788713) rotate(0 -7.217079046196773 -6.228316772279037)"><path d="M0 0 C-3.08 -6.67, -6.16 -13.34, -8.47 -18.36 M0 0 C-3.21 -6.95, -6.42 -13.91, -8.47 -18.36 M-8.47 -18.36 C-11.23 -18.47, -13.99 -18.58, -16.52 -18.68 M-8.47 -18.36 C-10.21 -18.43, -11.94 -18.5, -16.52 -18.68 M-16.52 -18.68 C-16.63 -17.54, -16.75 -16.4, -17.09 -13.02 M-16.52 -18.68 C-16.64 -17.44, -16.77 -16.19, -17.09 -13.02 M-17.09 -13.02 C-15.86 -12.85, -14.63 -12.69, -12.96 -12.46 M-17.09 -13.02 C-15.75 -12.84, -14.4 -12.65, -12.96 -12.46 M-12.96 -12.46 C-9.95 -5.95, -6.93 0.56, -4.45 5.9 M-12.96 -12.46 C-10.18 -6.44, -7.39 -0.42, -4.45 5.9 M-4.45 5.9 C-2.13 6.02, 0.2 6.13, 2.09 6.23 M-4.45 5.9 C-2.55 6, -0.65 6.09, 2.09 6.23 M2.09 6.23 C2.22 4.88, 2.36 3.53, 2.65 0.57 M2.09 6.23 C2.29 4.24, 2.49 2.24, 2.65 0.57 M2.65 0.57 C2.43 0.35, 2.22 0.13, 2.09 0 M2.65 0.57 C2.47 0.38, 2.28 0.19, 2.09 0" stroke="#000000" stroke-width="2" fill="none"></path></g></g><mask></mask><g transform="translate(826.93359375 122.61723694053683) rotate(0 54 7)"><text x="54" y="10" font-family="Virgil, Segoe UI Emoji" font-size="11.324212313234598px" fill="#5c940d" text-anchor="middle" style="white-space: pre;" direction="ltr">updateUserAccount</text></g><g stroke-linecap="round" transform="translate(804.3202512807193 159.38623524729735) rotate(0 18.249294383413485 18.231818963523338)"><path d="M0 0 C0 0, 0 0, 0 0 M0 0 C0 0, 0 0, 0 0 M0.13 12.04 C3.58 8.08, 7.02 4.12, 10.63 -0.03 M0.13 12.04 C3.26 8.44, 6.39 4.84, 10.63 -0.03 M0.27 24.08 C8.55 14.55, 16.84 5.02, 21.26 -0.07 M0.27 24.08 C6 17.49, 11.73 10.89, 21.26 -0.07 M-0.26 36.88 C7.22 28.28, 14.69 19.68, 31.89 -0.1 M-0.26 36.88 C12.13 22.63, 24.51 8.39, 31.89 -0.1 M10.37 36.84 C19.71 26.1, 29.05 15.36, 39.9 2.88 M10.37 36.84 C17.6 28.53, 24.83 20.21, 39.9 2.88 M21 36.81 C26.27 30.75, 31.53 24.7, 40.03 14.92 M21 36.81 C27.26 29.61, 33.52 22.4, 40.03 14.92 M31.63 36.77 C34.24 33.77, 36.85 30.77, 40.16 26.96 M31.63 36.77 C33.97 34.08, 36.32 31.39, 40.16 26.96 M0.06 36.51 C0.06 36.51, 0.06 36.51, 0.06 36.51 M0.06 36.51 C0.06 36.51, 0.06 36.51, 0.06 36.51 M12.1 36.38 C7.41 32.31, 2.73 28.24, 0.02 25.88 M12.1 36.38 C8.98 33.67, 5.86 30.96, 0.02 25.88 M24.14 36.25 C17.1 30.13, 10.06 24.01, -0.01 15.25 M24.14 36.25 C18.97 31.76, 13.81 27.27, -0.01 15.25 M36.18 36.12 C22.49 24.21, 8.8 12.31, -0.04 4.62 M36.18 36.12 C27.04 28.17, 17.9 20.22, -0.04 4.62 M36.9 26.14 C25.25 16.02, 13.61 5.89, 2.94 -3.38 M36.9 26.14 C29.55 19.75, 22.2 13.36, 2.94 -3.38 M36.87 15.51 C30.7 10.15, 24.54 4.79, 14.98 -3.51 M36.87 15.51 C30.92 10.34, 24.98 5.18, 14.98 -3.51 M36.83 4.88 C33.94 2.36, 31.04 -0.15, 27.02 -3.65 M36.83 4.88 C32.92 1.48, 29 -1.93, 27.02 -3.65" stroke="#fd7e1488" stroke-width="1" fill="none"></path><path d="M0 0 C9.13 0, 18.27 0, 36.5 0 M0 0 C12.09 0, 24.18 0, 36.5 0 M36.5 0 C36.5 13.62, 36.5 27.24, 36.5 36.46 M36.5 0 C36.5 8.19, 36.5 16.39, 36.5 36.46 M36.5 36.46 C28.84 36.46, 21.19 36.46, 0 36.46 M36.5 36.46 C25.03 36.46, 13.56 36.46, 0 36.46 M0 36.46 C0 23.72, 0 10.98, 0 0 M0 36.46 C0 26.05, 0 15.63, 0 0" stroke="#000000" stroke-width="2" fill="none"></path></g><g stroke-linecap="round"><g transform="translate(818.4705382939883 174.52527221071267) rotate(0 -1.742102157413001 7.614683464726781)"><path d="M0 0 C-1.54 3.08, -3.08 6.16, -7.21 14.42 M0 0 C-1.97 3.95, -3.95 7.89, -7.21 14.42 M-7.21 14.42 C-4.99 14.68, -2.77 14.94, -0.29 15.23 M-7.21 14.42 C-5.44 14.63, -3.66 14.83, -0.29 15.23 M-0.29 15.23 C1.29 12.17, 2.87 9.11, 3.72 7.46 M-0.29 15.23 C0.61 13.48, 1.51 11.74, 3.72 7.46 M3.72 7.46 C2.8 5.41, 1.87 3.35, 0.51 0.32 M3.72 7.46 C2.75 5.3, 1.78 3.14, 0.51 0.32" stroke="#000000" stroke-width="2" fill="none"></path></g></g><mask></mask><g stroke-linecap="round"><g transform="translate(832.335179213967 183.52632236788713) rotate(0 -7.217079046196773 -6.228316772279044)"><path d="M0 0 C-2.02 -4.39, -4.05 -8.77, -8.47 -18.36 M0 0 C-2.91 -6.32, -5.83 -12.63, -8.47 -18.36 M-8.47 -18.36 C-10.44 -18.44, -12.41 -18.52, -16.52 -18.68 M-8.47 -18.36 C-10.43 -18.44, -12.39 -18.52, -16.52 -18.68 M-16.52 -18.68 C-16.66 -17.24, -16.81 -15.79, -17.09 -13.02 M-16.52 -18.68 C-16.68 -17.05, -16.85 -15.42, -17.09 -13.02 M-17.09 -13.02 C-16.22 -12.9, -15.36 -12.79, -12.96 -12.46 M-17.09 -13.02 C-15.52 -12.81, -13.95 -12.59, -12.96 -12.46 M-12.96 -12.46 C-9.65 -5.32, -6.35 1.82, -4.45 5.9 M-12.96 -12.46 C-10.39 -6.9, -7.81 -1.33, -4.45 5.9 M-4.45 5.9 C-2.98 5.97, -1.51 6.05, 2.09 6.23 M-4.45 5.9 C-3.08 5.97, -1.71 6.04, 2.09 6.23 M2.09 6.23 C2.26 4.51, 2.43 2.79, 2.65 0.57 M2.09 6.23 C2.27 4.41, 2.45 2.6, 2.65 0.57 M2.65 0.57 C2.44 0.35, 2.23 0.14, 2.09 0 M2.65 0.57 C2.53 0.44, 2.41 0.32, 2.09 0" stroke="#000000" stroke-width="2" fill="none"></path></g></g><mask></mask><g transform="translate(770.42578125 198.66020569053683) rotate(0 52 7)"><text x="52" y="10" font-family="Virgil, Segoe UI Emoji" font-size="11.324212313234598px" fill="#5c940d" text-anchor="middle" style="white-space: pre;" direction="ltr">deleteUserAccount</text></g><g stroke-linecap="round"><g transform="translate(481.900107428683 444.2531969146887) rotate(0 93.15414500088889 -144.73195835127572)"><path d="M0.39 1.17 C16.66 -42.26, 67.48 -211.98, 98.2 -260.19 C128.92 -308.4, 170.24 -283.78, 184.71 -288.11 M-0.87 0.73 C15.2 -42.54, 65.92 -210.77, 97.26 -258.76 C128.61 -306.76, 172.55 -282.34, 187.18 -287.23" stroke="#000000" stroke-width="1" fill="none"></path></g><g transform="translate(481.900107428683 444.2531969146887) rotate(0 93.15414500088889 -144.73195835127572)"><path d="M160.55 -278.03 C168.15 -282.7, 177.02 -285.36, 189.06 -285.36 M159.06 -277.85 C164.22 -279.15, 170.46 -281.46, 187.73 -288.01" stroke="#000000" stroke-width="1" fill="none"></path></g><g transform="translate(481.900107428683 444.2531969146887) rotate(0 93.15414500088889 -144.73195835127572)"><path d="M161.34 -298.53 C168.72 -296.09, 177.32 -291.63, 189.06 -285.36 M159.84 -298.36 C164.73 -295.26, 170.8 -293.16, 187.73 -288.01" stroke="#000000" stroke-width="1" fill="none"></path></g></g><mask></mask><g stroke-linecap="round" transform="translate(677.1726327474926 306.23046875) rotate(0 142.60471100250743 184.75905628968871)"><path d="M0 0 C79.24 0, 158.47 0, 285.21 0 M285.21 0 C285.21 74.14, 285.21 148.28, 285.21 369.52 M285.21 369.52 C217.26 369.52, 149.31 369.52, 0 369.52 M0 369.52 C0 243.49, 0 117.45, 0 0" stroke="#0091e2" stroke-width="2.5" fill="none" stroke-dasharray="8 10"></path></g><g stroke-linecap="round" transform="translate(734.6671938450911 332.578125755569) rotate(0 18.249294383413485 18.231818963523324)"><path d="M0 0 C0 0, 0 0, 0 0 M0 0 C0 0, 0 0, 0 0 M0.13 12.04 C3.56 8.1, 6.98 4.16, 10.63 -0.03 M0.13 12.04 C3.49 8.17, 6.85 4.31, 10.63 -0.03 M0.27 24.08 C6.64 16.74, 13.02 9.41, 21.26 -0.07 M0.27 24.08 C4.98 18.66, 9.7 13.23, 21.26 -0.07 M-0.26 36.88 C12.22 22.52, 24.71 8.16, 31.89 -0.1 M-0.26 36.88 C6.35 29.28, 12.95 21.69, 31.89 -0.1 M10.37 36.84 C18.15 27.89, 25.94 18.94, 39.9 2.88 M10.37 36.84 C22.05 23.41, 33.72 9.98, 39.9 2.88 M21 36.81 C24.94 32.28, 28.87 27.76, 40.03 14.92 M21 36.81 C27.78 29.01, 34.56 21.21, 40.03 14.92 M31.63 36.77 C34.14 33.89, 36.65 31, 40.16 26.96 M31.63 36.77 C34.81 33.12, 37.98 29.47, 40.16 26.96 M0.06 36.51 C0.06 36.51, 0.06 36.51, 0.06 36.51 M0.06 36.51 C0.06 36.51, 0.06 36.51, 0.06 36.51 M12.1 36.38 C9.18 33.84, 6.25 31.3, 0.02 25.88 M12.1 36.38 C8.73 33.45, 5.36 30.52, 0.02 25.88 M24.14 36.25 C16.69 29.77, 9.23 23.29, -0.01 15.25 M24.14 36.25 C14.62 27.97, 5.1 19.69, -0.01 15.25 M36.18 36.12 C23.7 25.27, 11.23 14.42, -0.04 4.62 M36.18 36.12 C28.93 29.81, 21.68 23.51, -0.04 4.62 M36.9 26.14 C26.15 16.8, 15.4 7.45, 2.94 -3.38 M36.9 26.14 C23.35 14.36, 9.79 2.57, 2.94 -3.38 M36.87 15.51 C31.85 11.15, 26.84 6.79, 14.98 -3.51 M36.87 15.51 C28.58 8.3, 20.28 1.1, 14.98 -3.51 M36.83 4.88 C33.6 2.07, 30.37 -0.74, 27.02 -3.65 M36.83 4.88 C33.84 2.28, 30.84 -0.33, 27.02 -3.65" stroke="#fd7e1488" stroke-width="1" fill="none"></path><path d="M0 0 C8.88 0, 17.76 0, 36.5 0 M0 0 C10.64 0, 21.28 0, 36.5 0 M36.5 0 C36.5 8.03, 36.5 16.06, 36.5 36.46 M36.5 0 C36.5 13.28, 36.5 26.57, 36.5 36.46 M36.5 36.46 C23.23 36.46, 9.95 36.46, 0 36.46 M36.5 36.46 C21.95 36.46, 7.39 36.46, 0 36.46 M0 36.46 C0 26.06, 0 15.66, 0 0 M0 36.46 C0 22.24, 0 8.01, 0 0" stroke="#000000" stroke-width="2" fill="none"></path></g><g stroke-linecap="round"><g transform="translate(748.8174808583599 347.7171627189843) rotate(0 -1.742102157413001 7.614683464726767)"><path d="M0 0 C-2.03 4.06, -4.06 8.12, -7.21 14.42 M0 0 C-1.68 3.35, -3.35 6.7, -7.21 14.42 M-7.21 14.42 C-4.45 14.74, -1.68 15.07, -0.29 15.23 M-7.21 14.42 C-5.54 14.61, -3.88 14.81, -0.29 15.23 M-0.29 15.23 C1.27 12.2, 2.84 9.18, 3.72 7.46 M-0.29 15.23 C0.66 13.39, 1.61 11.54, 3.72 7.46 M3.72 7.46 C2.5 4.75, 1.28 2.04, 0.51 0.32 M3.72 7.46 C2.94 5.73, 2.17 4, 0.51 0.32" stroke="#000000" stroke-width="2" fill="none"></path></g></g><mask></mask><g stroke-linecap="round"><g transform="translate(762.6821217783386 356.71821287615876) rotate(0 -7.217079046196773 -6.228316772279044)"><path d="M0 0 C-1.96 -4.24, -3.92 -8.49, -8.47 -18.36 M0 0 C-2.73 -5.91, -5.46 -11.83, -8.47 -18.36 M-8.47 -18.36 C-10.7 -18.45, -12.94 -18.54, -16.52 -18.68 M-8.47 -18.36 C-11.26 -18.47, -14.04 -18.58, -16.52 -18.68 M-16.52 -18.68 C-16.69 -17.01, -16.86 -15.33, -17.09 -13.02 M-16.52 -18.68 C-16.72 -16.65, -16.93 -14.61, -17.09 -13.02 M-17.09 -13.02 C-15.6 -12.82, -14.11 -12.61, -12.96 -12.46 M-17.09 -13.02 C-16 -12.87, -14.92 -12.73, -12.96 -12.46 M-12.96 -12.46 C-10.2 -6.5, -7.44 -0.55, -4.45 5.9 M-12.96 -12.46 C-9.57 -5.14, -6.18 2.17, -4.45 5.9 M-4.45 5.9 C-2.97 5.98, -1.49 6.05, 2.09 6.23 M-4.45 5.9 C-2.87 5.98, -1.29 6.06, 2.09 6.23 M2.09 6.23 C2.26 4.53, 2.43 2.83, 2.65 0.57 M2.09 6.23 C2.26 4.54, 2.43 2.84, 2.65 0.57 M2.65 0.57 C2.44 0.35, 2.23 0.14, 2.09 0 M2.65 0.57 C2.43 0.34, 2.2 0.12, 2.09 0" stroke="#000000" stroke-width="2" fill="none"></path></g></g><mask></mask><g transform="translate(717.7727238143716 371.85209619880845) rotate(0 35 7)"><text x="35" y="10" font-family="Virgil, Segoe UI Emoji" font-size="11.324212313234598px" fill="#5c940d" text-anchor="middle" style="white-space: pre;" direction="ltr">createGroup</text></g><g stroke-linecap="round" transform="translate(859.6679075307193 333.677735130569) rotate(0 18.249294383413485 18.231818963523324)"><path d="M0 0 C0 0, 0 0, 0 0 M0 0 C0 0, 0 0, 0 0 M0.13 12.04 C3.09 8.64, 6.05 5.23, 10.63 -0.03 M0.13 12.04 C2.24 9.61, 4.36 7.18, 10.63 -0.03 M0.27 24.08 C8.31 14.83, 16.36 5.57, 21.26 -0.07 M0.27 24.08 C6.67 16.72, 13.07 9.35, 21.26 -0.07 M-0.26 36.88 C11.81 23, 23.87 9.12, 31.89 -0.1 M-0.26 36.88 C6.93 28.61, 14.12 20.34, 31.89 -0.1 M10.37 36.84 C19.44 26.41, 28.51 15.98, 39.9 2.88 M10.37 36.84 C20.88 24.76, 31.38 12.67, 39.9 2.88 M21 36.81 C25.92 31.15, 30.84 25.49, 40.03 14.92 M21 36.81 C26.55 30.42, 32.1 24.04, 40.03 14.92 M31.63 36.77 C34.59 33.38, 37.54 29.98, 40.16 26.96 M31.63 36.77 C34.25 33.77, 36.86 30.76, 40.16 26.96 M0.06 36.51 C0.06 36.51, 0.06 36.51, 0.06 36.51 M0.06 36.51 C0.06 36.51, 0.06 36.51, 0.06 36.51 M12.1 36.38 C9.46 34.09, 6.82 31.79, 0.02 25.88 M12.1 36.38 C8.97 33.66, 5.84 30.94, 0.02 25.88 M24.14 36.25 C17.43 30.42, 10.73 24.59, -0.01 15.25 M24.14 36.25 C18.92 31.71, 13.69 27.16, -0.01 15.25 M36.18 36.12 C27.72 28.76, 19.25 21.4, -0.04 4.62 M36.18 36.12 C26.15 27.4, 16.12 18.68, -0.04 4.62 M36.9 26.14 C27.34 17.83, 17.77 9.51, 2.94 -3.38 M36.9 26.14 C25.12 15.9, 13.33 5.65, 2.94 -3.38 M36.87 15.51 C30.5 9.98, 24.13 4.44, 14.98 -3.51 M36.87 15.51 C28.54 8.28, 20.22 1.04, 14.98 -3.51 M36.83 4.88 C34.76 3.08, 32.68 1.27, 27.02 -3.65 M36.83 4.88 C34.17 2.57, 31.51 0.25, 27.02 -3.65" stroke="#fd7e1488" stroke-width="1" fill="none"></path><path d="M0 0 C13.77 0, 27.54 0, 36.5 0 M0 0 C11.49 0, 22.98 0, 36.5 0 M36.5 0 C36.5 11.87, 36.5 23.74, 36.5 36.46 M36.5 0 C36.5 14.52, 36.5 29.03, 36.5 36.46 M36.5 36.46 C23.35 36.46, 10.21 36.46, 0 36.46 M36.5 36.46 C25.96 36.46, 15.42 36.46, 0 36.46 M0 36.46 C0 26.59, 0 16.71, 0 0 M0 36.46 C0 27.87, 0 19.27, 0 0" stroke="#000000" stroke-width="2" fill="none"></path></g><g stroke-linecap="round"><g transform="translate(873.8181945439883 348.8167720939843) rotate(0 -1.742102157413001 7.614683464726767)"><path d="M0 0 C-1.72 3.43, -3.43 6.86, -7.21 14.42 M0 0 C-2.73 5.46, -5.46 10.93, -7.21 14.42 M-7.21 14.42 C-5.31 14.64, -3.41 14.86, -0.29 15.23 M-7.21 14.42 C-5.32 14.64, -3.43 14.86, -0.29 15.23 M-0.29 15.23 C0.57 13.56, 1.43 11.9, 3.72 7.46 M-0.29 15.23 C0.66 13.39, 1.61 11.55, 3.72 7.46 M3.72 7.46 C3.08 6.03, 2.44 4.6, 0.51 0.32 M3.72 7.46 C2.62 5, 1.51 2.55, 0.51 0.32" stroke="#000000" stroke-width="2" fill="none"></path></g></g><mask></mask><g stroke-linecap="round"><g transform="translate(887.682835463967 357.81782225115876) rotate(0 -7.217079046196773 -6.228316772279044)"><path d="M0 0 C-2.7 -5.86, -5.41 -11.72, -8.47 -18.36 M0 0 C-3.11 -6.74, -6.22 -13.47, -8.47 -18.36 M-8.47 -18.36 C-10.87 -18.45, -13.28 -18.55, -16.52 -18.68 M-8.47 -18.36 C-10.18 -18.43, -11.88 -18.5, -16.52 -18.68 M-16.52 -18.68 C-16.72 -16.68, -16.92 -14.68, -17.09 -13.02 M-16.52 -18.68 C-16.63 -17.54, -16.75 -16.39, -17.09 -13.02 M-17.09 -13.02 C-16.06 -12.88, -15.04 -12.74, -12.96 -12.46 M-17.09 -13.02 C-15.51 -12.81, -13.94 -12.59, -12.96 -12.46 M-12.96 -12.46 C-9.88 -5.8, -6.8 0.85, -4.45 5.9 M-12.96 -12.46 C-9.63 -5.26, -6.29 1.95, -4.45 5.9 M-4.45 5.9 C-2.48 6, -0.51 6.1, 2.09 6.23 M-4.45 5.9 C-1.98 6.02, 0.5 6.15, 2.09 6.23 M2.09 6.23 C2.26 4.52, 2.43 2.81, 2.65 0.57 M2.09 6.23 C2.24 4.68, 2.4 3.13, 2.65 0.57 M2.65 0.57 C2.52 0.43, 2.39 0.3, 2.09 0 M2.65 0.57 C2.49 0.4, 2.32 0.23, 2.09 0" stroke="#000000" stroke-width="2" fill="none"></path></g></g><mask></mask><g transform="translate(830.7734375 372.95170557380845) rotate(0 47 7)"><text x="47" y="10" font-family="Virgil, Segoe UI Emoji" font-size="11.324212313234598px" fill="#5c940d" text-anchor="middle" style="white-space: pre;" direction="ltr">addUserToGroup</text></g><g transform="translate(750.08984375 446.66654932380845) rotate(0 70.5 7)"><text x="70.5" y="10" font-family="Virgil, Segoe UI Emoji" font-size="11.324212313234598px" fill="#000000" text-anchor="middle" style="white-space: pre;" direction="ltr">getGroupsCreatedByUser</text></g><g transform="translate(751.48828125 547.4019008863085) rotate(0 69 14)"><text x="69" y="10" font-family="Virgil, Segoe UI Emoji" font-size="11.324212313234598px" fill="#000000" text-anchor="middle" style="white-space: pre;" direction="ltr">getGroupsUserBelongsTo</text><text x="69" y="24" font-family="Virgil, Segoe UI Emoji" font-size="11.324212313234598px" fill="#000000" text-anchor="middle" style="white-space: pre;" direction="ltr"></text></g><g transform="translate(795.94921875 639.7456508863085) rotate(0 25.5 7)"><text x="25.5" y="10" font-family="Virgil, Segoe UI Emoji" font-size="11.324212313234598px" fill="#000000" text-anchor="middle" style="white-space: pre;" direction="ltr">getGroup</text></g><g transform="translate(762.87890625 690.7844469146887) rotate(0 62 12.5)"><text x="0" y="18" font-family="Virgil, Segoe UI Emoji" font-size="20px" fill="#000000" text-anchor="start" style="white-space: pre;" direction="ltr">Group Stack</text></g><g stroke-linecap="round" transform="translate(675.3249764974926 738.869140625) rotate(0 142.60471100250743 113.09694691468871)"><path d="M0 0 C92.58 0, 185.16 0, 285.21 0 M285.21 0 C285.21 46.12, 285.21 92.25, 285.21 226.19 M285.21 226.19 C198.07 226.19, 110.94 226.19, 0 226.19 M0 226.19 C0 159.64, 0 93.09, 0 0" stroke="#0091e2" stroke-width="2.5" fill="none" stroke-dasharray="8 10"></path></g><g stroke-linecap="round" transform="translate(725.0464569379055 799.937500755569) rotate(0 18.249294383413485 18.231818963523324)"><path d="M0 0 C0 0, 0 0, 0 0 M0 0 C0 0, 0 0, 0 0 M0.13 12.04 C2.83 8.94, 5.53 5.83, 10.63 -0.03 M0.13 12.04 C3.64 8.01, 7.15 3.97, 10.63 -0.03 M0.27 24.08 C7.63 15.61, 14.99 7.15, 21.26 -0.07 M0.27 24.08 C6.97 16.37, 13.67 8.66, 21.26 -0.07 M-0.26 36.88 C8.09 27.28, 16.44 17.68, 31.89 -0.1 M-0.26 36.88 C10.69 24.29, 21.63 11.7, 31.89 -0.1 M10.37 36.84 C18.46 27.54, 26.55 18.23, 39.9 2.88 M10.37 36.84 C18.2 27.84, 26.03 18.83, 39.9 2.88 M21 36.81 C27.58 29.25, 34.15 21.69, 40.03 14.92 M21 36.81 C25.2 31.98, 29.4 27.14, 40.03 14.92 M31.63 36.77 C34.14 33.89, 36.65 31.01, 40.16 26.96 M31.63 36.77 C34.09 33.94, 36.55 31.12, 40.16 26.96 M0.06 36.51 C0.06 36.51, 0.06 36.51, 0.06 36.51 M0.06 36.51 C0.06 36.51, 0.06 36.51, 0.06 36.51 M12.1 36.38 C8.71 33.44, 5.32 30.49, 0.02 25.88 M12.1 36.38 C9.51 34.13, 6.91 31.87, 0.02 25.88 M24.14 36.25 C15.55 28.78, 6.96 21.31, -0.01 15.25 M24.14 36.25 C18.15 31.04, 12.16 25.83, -0.01 15.25 M36.18 36.12 C21.89 23.69, 7.6 11.27, -0.04 4.62 M36.18 36.12 C24.23 25.73, 12.28 15.33, -0.04 4.62 M36.9 26.14 C28.36 18.72, 19.82 11.29, 2.94 -3.38 M36.9 26.14 C26.17 16.81, 15.43 7.48, 2.94 -3.38 M36.87 15.51 C30.59 10.05, 24.31 4.6, 14.98 -3.51 M36.87 15.51 C28.58 8.3, 20.29 1.1, 14.98 -3.51 M36.83 4.88 C33.18 1.7, 29.52 -1.48, 27.02 -3.65 M36.83 4.88 C33.89 2.32, 30.95 -0.24, 27.02 -3.65" stroke="#fd7e1488" stroke-width="1" fill="none"></path><path d="M0 0 C8.04 0, 16.07 0, 36.5 0 M0 0 C13.64 0, 27.27 0, 36.5 0 M36.5 0 C36.5 9.32, 36.5 18.65, 36.5 36.46 M36.5 0 C36.5 9.26, 36.5 18.51, 36.5 36.46 M36.5 36.46 C23.1 36.46, 9.7 36.46, 0 36.46 M36.5 36.46 C27.33 36.46, 18.17 36.46, 0 36.46 M0 36.46 C0 28.13, 0 19.8, 0 0 M0 36.46 C0 24.09, 0 11.71, 0 0" stroke="#000000" stroke-width="2" fill="none"></path></g><g stroke-linecap="round"><g transform="translate(739.1967439511741 815.0765377189842) rotate(0 -1.742102157413001 7.614683464726795)"><path d="M0 0 C-2.52 5.04, -5.04 10.08, -7.21 14.42 M0 0 C-2.16 4.32, -4.32 8.65, -7.21 14.42 M-7.21 14.42 C-4.92 14.69, -2.63 14.96, -0.29 15.23 M-7.21 14.42 C-5.38 14.63, -3.56 14.85, -0.29 15.23 M-0.29 15.23 C0.95 12.83, 2.19 10.42, 3.72 7.46 M-0.29 15.23 C0.83 13.06, 1.95 10.9, 3.72 7.46 M3.72 7.46 C2.69 5.17, 1.66 2.87, 0.51 0.32 M3.72 7.46 C2.88 5.58, 2.03 3.69, 0.51 0.32" stroke="#000000" stroke-width="2" fill="none"></path></g></g><mask></mask><g stroke-linecap="round"><g transform="translate(753.0613848711528 824.0775878761588) rotate(0 -7.217079046196773 -6.228316772279015)"><path d="M0 0 C-3.19 -6.92, -6.39 -13.84, -8.47 -18.36 M0 0 C-3.35 -7.26, -6.7 -14.52, -8.47 -18.36 M-8.47 -18.36 C-11.42 -18.48, -14.38 -18.6, -16.52 -18.68 M-8.47 -18.36 C-10.67 -18.45, -12.88 -18.54, -16.52 -18.68 M-16.52 -18.68 C-16.72 -16.7, -16.92 -14.71, -17.09 -13.02 M-16.52 -18.68 C-16.69 -16.95, -16.87 -15.21, -17.09 -13.02 M-17.09 -13.02 C-15.97 -12.87, -14.85 -12.72, -12.96 -12.46 M-17.09 -13.02 C-15.98 -12.87, -14.87 -12.72, -12.96 -12.46 M-12.96 -12.46 C-10.27 -6.65, -7.58 -0.84, -4.45 5.9 M-12.96 -12.46 C-11.25 -8.75, -9.53 -5.04, -4.45 5.9 M-4.45 5.9 C-2.27 6.01, -0.09 6.12, 2.09 6.23 M-4.45 5.9 C-2.36 6.01, -0.27 6.11, 2.09 6.23 M2.09 6.23 C2.22 4.92, 2.35 3.61, 2.65 0.57 M2.09 6.23 C2.25 4.58, 2.42 2.93, 2.65 0.57 M2.65 0.57 C2.44 0.35, 2.22 0.13, 2.09 0 M2.65 0.57 C2.46 0.37, 2.27 0.18, 2.09 0" stroke="#000000" stroke-width="2" fill="none"></path></g></g><mask></mask><g transform="translate(707.1519869071858 839.2114711988085) rotate(0 36 7)"><text x="36" y="10" font-family="Virgil, Segoe UI Emoji" font-size="11.324212313234598px" fill="#5c940d" text-anchor="middle" style="white-space: pre;" direction="ltr">sendMessage</text></g><g stroke-linecap="round" transform="translate(850.2932643735335 801.529297630569) rotate(0 18.249294383413485 18.231818963523324)"><path d="M0 0 C0 0, 0 0, 0 0 M0 0 C0 0, 0 0, 0 0 M0.13 12.04 C3.64 8.01, 7.14 3.98, 10.63 -0.03 M0.13 12.04 C2.36 9.48, 4.59 6.92, 10.63 -0.03 M0.27 24.08 C8.04 15.14, 15.82 6.19, 21.26 -0.07 M0.27 24.08 C7.13 16.19, 13.99 8.3, 21.26 -0.07 M-0.26 36.88 C9.75 25.37, 19.75 13.87, 31.89 -0.1 M-0.26 36.88 C7.92 27.47, 16.1 18.06, 31.89 -0.1 M10.37 36.84 C16.98 29.24, 23.58 21.65, 39.9 2.88 M10.37 36.84 C19.71 26.11, 29.04 15.37, 39.9 2.88 M21 36.81 C26.24 30.78, 31.48 24.76, 40.03 14.92 M21 36.81 C25.86 31.22, 30.72 25.63, 40.03 14.92 M31.63 36.77 C34.52 33.45, 37.4 30.13, 40.16 26.96 M31.63 36.77 C34.46 33.52, 37.29 30.27, 40.16 26.96 M0.06 36.51 C0.06 36.51, 0.06 36.51, 0.06 36.51 M0.06 36.51 C0.06 36.51, 0.06 36.51, 0.06 36.51 M12.1 36.38 C7.8 32.64, 3.5 28.91, 0.02 25.88 M12.1 36.38 C8.76 33.48, 5.42 30.57, 0.02 25.88 M24.14 36.25 C18.33 31.2, 12.52 26.14, -0.01 15.25 M24.14 36.25 C17.14 30.16, 10.14 24.08, -0.01 15.25 M36.18 36.12 C28.6 29.52, 21.01 22.93, -0.04 4.62 M36.18 36.12 C24.74 26.17, 13.31 16.23, -0.04 4.62 M36.9 26.14 C24.78 15.6, 12.66 5.07, 2.94 -3.38 M36.9 26.14 C30.07 20.21, 23.25 14.27, 2.94 -3.38 M36.87 15.51 C29.84 9.4, 22.8 3.29, 14.98 -3.51 M36.87 15.51 C30.93 10.35, 24.98 5.18, 14.98 -3.51 M36.83 4.88 C33.99 2.41, 31.14 -0.06, 27.02 -3.65 M36.83 4.88 C34.62 2.96, 32.42 1.04, 27.02 -3.65" stroke="#fd7e1488" stroke-width="1" fill="none"></path><path d="M0 0 C11.64 0, 23.27 0, 36.5 0 M0 0 C13.21 0, 26.41 0, 36.5 0 M36.5 0 C36.5 7.54, 36.5 15.08, 36.5 36.46 M36.5 0 C36.5 7.35, 36.5 14.7, 36.5 36.46 M36.5 36.46 C24.34 36.46, 12.18 36.46, 0 36.46 M36.5 36.46 C25.35 36.46, 14.2 36.46, 0 36.46 M0 36.46 C0 23.25, 0 10.03, 0 0 M0 36.46 C0 25.96, 0 15.45, 0 0" stroke="#000000" stroke-width="2" fill="none"></path></g><g stroke-linecap="round"><g transform="translate(864.4435513868025 816.6683345939842) rotate(0 -1.742102157413001 7.614683464726795)"><path d="M0 0 C-1.55 3.11, -3.11 6.22, -7.21 14.42 M0 0 C-1.97 3.94, -3.94 7.87, -7.21 14.42 M-7.21 14.42 C-5.75 14.59, -4.3 14.76, -0.29 15.23 M-7.21 14.42 C-4.73 14.71, -2.25 15, -0.29 15.23 M-0.29 15.23 C1 12.74, 2.29 10.24, 3.72 7.46 M-0.29 15.23 C0.68 13.34, 1.66 11.45, 3.72 7.46 M3.72 7.46 C2.48 4.69, 1.23 1.92, 0.51 0.32 M3.72 7.46 C2.72 5.23, 1.71 2.99, 0.51 0.32" stroke="#000000" stroke-width="2" fill="none"></path></g></g><mask></mask><g stroke-linecap="round"><g transform="translate(878.3081923067812 825.6693847511588) rotate(0 -7.217079046196773 -6.228316772279015)"><path d="M0 0 C-2.88 -6.25, -5.77 -12.5, -8.47 -18.36 M0 0 C-1.78 -3.86, -3.56 -7.72, -8.47 -18.36 M-8.47 -18.36 C-10.26 -18.43, -12.05 -18.5, -16.52 -18.68 M-8.47 -18.36 C-10.18 -18.43, -11.89 -18.5, -16.52 -18.68 M-16.52 -18.68 C-16.68 -17.09, -16.84 -15.49, -17.09 -13.02 M-16.52 -18.68 C-16.74 -16.48, -16.96 -14.27, -17.09 -13.02 M-17.09 -13.02 C-15.59 -12.82, -14.1 -12.61, -12.96 -12.46 M-17.09 -13.02 C-16.09 -12.89, -15.08 -12.75, -12.96 -12.46 M-12.96 -12.46 C-9.6 -5.19, -6.23 2.07, -4.45 5.9 M-12.96 -12.46 C-10.34 -6.79, -7.71 -1.13, -4.45 5.9 M-4.45 5.9 C-3.11 5.97, -1.78 6.04, 2.09 6.23 M-4.45 5.9 C-2.81 5.98, -1.17 6.07, 2.09 6.23 M2.09 6.23 C2.27 4.46, 2.44 2.69, 2.65 0.57 M2.09 6.23 C2.29 4.21, 2.49 2.19, 2.65 0.57 M2.65 0.57 C2.46 0.37, 2.26 0.17, 2.09 0 M2.65 0.57 C2.52 0.44, 2.39 0.31, 2.09 0" stroke="#000000" stroke-width="2" fill="none"></path></g></g><mask></mask><g transform="translate(826.8987943428142 840.8032680738085) rotate(0 41.5 7)"><text x="41.5" y="10" font-family="Virgil, Segoe UI Emoji" font-size="11.324212313234598px" fill="#5c940d" text-anchor="middle" style="white-space: pre;" direction="ltr">typingIndicator</text></g><g transform="translate(746.6171875 925.2339321363085) rotate(0 61.5 7)"><text x="61.5" y="10" font-family="Virgil, Segoe UI Emoji" font-size="11.324212313234598px" fill="#000000" text-anchor="middle" style="white-space: pre;" direction="ltr">getMessagesPerGroup</text></g><g transform="translate(736.99609375 975.4875719146887) rotate(0 75 12.5)"><text x="0" y="18" font-family="Virgil, Segoe UI Emoji" font-size="20px" fill="#000000" text-anchor="start" style="white-space: pre;" direction="ltr">Message Stack</text></g><g stroke-linecap="round"><g transform="translate(470.96875 535.9367906646887) rotate(0 97.56963573172686 156.90982025605626)"><path d="M-0.97 -0.38 C11.55 44.03, 41.11 214.22, 73.95 266.61 C106.8 319, 175.59 306.24, 196.11 313.98 M0.72 -1.62 C13.18 42.93, 40.58 215.02, 73 267.87 C105.42 320.71, 174.46 307.77, 195.24 315.44" stroke="#000000" stroke-width="1" fill="none"></path></g><g transform="translate(470.96875 535.9367906646887) rotate(0 97.56963573172686 156.90982025605626)"><path d="M165.37 322.11 C171.09 320.66, 178.41 320.83, 194.19 314.49 M166.11 321.99 C172.82 319.94, 182.03 317.35, 194.59 315.65" stroke="#000000" stroke-width="1" fill="none"></path></g><g transform="translate(470.96875 535.9367906646887) rotate(0 97.56963573172686 156.90982025605626)"><path d="M167.9 301.75 C173.14 304.45, 179.94 308.8, 194.19 314.49 M168.64 301.62 C174.88 305.02, 183.41 307.85, 194.59 315.65" stroke="#000000" stroke-width="1" fill="none"></path></g></g><mask></mask><g stroke-linecap="round"><g transform="translate(505.11328125 477.6867906646887) rotate(0 83.62113721295725 -1.0434538893401566)"><path d="M0.27 -0.21 C28.51 -0.35, 140.17 -1.63, 168.3 -1.87 M-1.05 -1.37 C27.12 -1.23, 138.95 -0.67, 167.22 -0.52" stroke="#000000" stroke-width="1" fill="none"></path></g><g transform="translate(505.11328125 477.6867906646887) rotate(0 83.62113721295725 -1.0434538893401566)"><path d="M138.62 9.17 C144.15 8.34, 150.1 6.02, 168.28 -0.16 M138.78 10.07 C143.72 7.06, 150.33 5.14, 167.61 -0.16" stroke="#000000" stroke-width="1" fill="none"></path></g><g transform="translate(505.11328125 477.6867906646887) rotate(0 83.62113721295725 -1.0434538893401566)"><path d="M138.72 -11.35 C144.05 -8.07, 149.98 -6.27, 168.28 -0.16 M138.89 -10.45 C143.97 -9.31, 150.56 -7.08, 167.61 -0.16" stroke="#000000" stroke-width="1" fill="none"></path></g></g><mask></mask><g stroke-linecap="round" transform="translate(714.5109610025074 402.5810855263158) rotate(0 99.5 20.5)"><path d="M0 0 C42.18 0, 84.35 0, 199 0 M199 0 C199 11.44, 199 22.88, 199 41 M199 41 C139.02 41, 79.04 41, 0 41 M0 41 C0 25.47, 0 9.94, 0 0" stroke="#a61e4d" stroke-width="2.5" fill="none" stroke-dasharray="8 10"></path></g><g transform="translate(744.0109610025074 410.5810855263158) rotate(0 70 12.5)"><text x="70" y="18" font-family="Virgil, Segoe UI Emoji" font-size="20px" fill="#a61e4d" text-anchor="middle" style="white-space: pre;" direction="ltr">VTL Template</text></g><g stroke-linecap="round" transform="translate(714.96875 502.80048825997596) rotate(0 99.5 20.5)"><path d="M0 0 C44.41 0, 88.83 0, 199 0 M199 0 C199 12.1, 199 24.2, 199 41 M199 41 C145.34 41, 91.68 41, 0 41 M0 41 C0 25.52, 0 10.04, 0 0" stroke="#a61e4d" stroke-width="2.5" fill="none" stroke-dasharray="8 10"></path></g><g transform="translate(744.46875 510.80048825997596) rotate(0 70 12.5)"><text x="70" y="18" font-family="Virgil, Segoe UI Emoji" font-size="20px" fill="#a61e4d" text-anchor="middle" style="white-space: pre;" direction="ltr">VTL Template</text></g><g stroke-linecap="round" transform="translate(711.77734375 591.581738259976) rotate(0 99.5 20.5)"><path d="M0 0 C69.41 0, 138.83 0, 199 0 M199 0 C199 14.86, 199 29.72, 199 41 M199 41 C150.47 41, 101.94 41, 0 41 M0 41 C0 27.15, 0 13.3, 0 0" stroke="#a61e4d" stroke-width="2.5" fill="none" stroke-dasharray="8 10"></path></g><g transform="translate(741.27734375 599.581738259976) rotate(0 70 12.5)"><text x="70" y="18" font-family="Virgil, Segoe UI Emoji" font-size="20px" fill="#a61e4d" text-anchor="middle" style="white-space: pre;" direction="ltr">VTL Template</text></g><g stroke-linecap="round" transform="translate(711.0078125 883.1906969146887) rotate(0 99.5 20.5)"><path d="M0 0 C63.72 0, 127.44 0, 199 0 M199 0 C199 10.71, 199 21.41, 199 41 M199 41 C128.18 41, 57.35 41, 0 41 M0 41 C0 26.03, 0 11.07, 0 0" stroke="#a61e4d" stroke-width="2.5" fill="none" stroke-dasharray="8 10"></path></g><g transform="translate(740.5078125 891.1906969146887) rotate(0 70 12.5)"><text x="70" y="18" font-family="Virgil, Segoe UI Emoji" font-size="20px" fill="#a61e4d" text-anchor="middle" style="white-space: pre;" direction="ltr">VTL Template</text></g><g stroke-linecap="round"><g transform="translate(964.9609375 151.9739722078163) rotate(0 183.33517045142753 132.89065867099484)"><path d="M0.67 0.58 C56.06 5.3, 271.24 -17.35, 331.37 27.26 C391.51 71.86, 356.39 228.15, 361.49 268.23 M-0.44 -0.17 C54.93 4.26, 270.62 -19.13, 330.77 25.26 C390.92 69.65, 355.22 225.56, 360.46 266.16" stroke="#000000" stroke-width="1" fill="none"></path></g><g transform="translate(964.9609375 151.9739722078163) rotate(0 183.33517045142753 132.89065867099484)"><path d="M352.38 238.66 C353.55 242.95, 356.01 250.01, 360.54 264.58 M350.54 237.66 C353.45 246.35, 356.69 256.45, 361.19 266.65" stroke="#000000" stroke-width="1" fill="none"></path></g><g transform="translate(964.9609375 151.9739722078163) rotate(0 183.33517045142753 132.89065867099484)"><path d="M372.88 239.55 C369.55 243.75, 367.5 250.62, 360.54 264.58 M371.05 238.54 C367.03 246.75, 363.35 256.55, 361.19 266.65" stroke="#000000" stroke-width="1" fill="none"></path></g></g><mask></mask><g stroke-linecap="round"><g transform="translate(966.8046875 467.5735094146887) rotate(0 159.21813307636887 -1.3201738141616772)"><path d="M0.99 0.53 C54.07 0.48, 265.57 -1.08, 318.39 -1.47 M0.05 -0.24 C52.97 -0.52, 264.57 -2.56, 317.36 -3.17" stroke="#000000" stroke-width="1" fill="none"></path></g><g transform="translate(966.8046875 467.5735094146887) rotate(0 159.21813307636887 -1.3201738141616772)"><path d="M290.15 7.12 C298.87 2.96, 306.46 2.9, 317.62 -1.96 M289.56 6.76 C295.43 5.64, 302.72 2.39, 318.28 -3.24" stroke="#000000" stroke-width="1" fill="none"></path></g><g transform="translate(966.8046875 467.5735094146887) rotate(0 159.21813307636887 -1.3201738141616772)"><path d="M289.94 -13.4 C298.51 -11.6, 306.17 -5.7, 317.62 -1.96 M289.35 -13.76 C295.12 -9.83, 302.47 -8.02, 318.28 -3.24" stroke="#000000" stroke-width="1" fill="none"></path></g></g><mask></mask><g stroke-linecap="round"><g transform="translate(962.75 836.5930406646887) rotate(0 183.24267569033873 -151.92165239432734)"><path d="M0.48 -0.13 C55.77 -4.69, 271.48 23.61, 331.6 -27.61 C391.73 -78.83, 356.41 -260.65, 361.23 -307.47 M-0.72 -1.25 C54.38 -6.11, 270.22 21.51, 330.42 -29.31 C390.62 -80.12, 355.49 -259.7, 360.48 -306.14" stroke="#000000" stroke-width="1" fill="none"></path></g><g transform="translate(962.75 836.5930406646887) rotate(0 183.24267569033873 -151.92165239432734)"><path d="M371.58 -279.09 C369.97 -286.25, 365.4 -295.5, 358.78 -305.98 M372.18 -279.28 C367.91 -288.67, 363.27 -296.91, 361.18 -306.42" stroke="#000000" stroke-width="1" fill="none"></path></g><g transform="translate(962.75 836.5930406646887) rotate(0 183.24267569033873 -151.92165239432734)"><path d="M351.08 -278.31 C355.37 -285.78, 356.71 -295.25, 358.78 -305.98 M351.67 -278.5 C354.33 -287.95, 356.62 -296.45, 361.18 -306.42" stroke="#000000" stroke-width="1" fill="none"></path></g></g><mask></mask><g stroke-linecap="round"><g transform="translate(117.9921875 487.1321031646887) rotate(0 155.54219344973097 -2.27350853614044)"><path d="M-0.65 -0.85 C51.05 -1.93, 257.55 -5.37, 309.4 -5.87 M1.2 1.33 C53.37 0.31, 260.3 -3.67, 311.74 -4.83" stroke="#000000" stroke-width="1" fill="none"></path></g><g transform="translate(117.9921875 487.1321031646887) rotate(0 155.54219344973097 -2.27350853614044)"><path d="M282.35 4.82 C288.59 4.2, 298.44 0.63, 309.91 -6.26 M284.29 6.37 C293.77 2.29, 302.67 -1.2, 311.48 -5.07" stroke="#000000" stroke-width="1" fill="none"></path></g><g transform="translate(117.9921875 487.1321031646887) rotate(0 155.54219344973097 -2.27350853614044)"><path d="M281.93 -15.69 C288.37 -11.59, 298.32 -10.42, 309.91 -6.26 M283.87 -14.15 C293.36 -11.47, 302.39 -8.21, 311.48 -5.07" stroke="#000000" stroke-width="1" fill="none"></path></g></g><mask></mask><g transform="translate(10 614.3625719146887) rotate(0 60.5 12.5)"><text x="0" y="18" font-family="Virgil, Segoe UI Emoji" font-size="20px" fill="#000000" text-anchor="start" style="white-space: pre;" direction="ltr">FLutter app</text></g><g stroke-linecap="round" transform="translate(338.78005462249257 10) rotate(0 534.7941641275074 517.3860094146887)"><path d="M0 0 C220.99 0, 441.98 0, 1069.59 0 M1069.59 0 C1069.59 233.6, 1069.59 467.2, 1069.59 1034.77 M1069.59 1034.77 C757.86 1034.77, 446.13 1034.77, 0 1034.77 M0 1034.77 C0 766.47, 0 498.16, 0 0" stroke="#c92a2a" stroke-width="2.5" fill="none" stroke-dasharray="8 10"></path></g><g transform="translate(807.04296875 1056.0500719146887) rotate(0 55 12.5)"><text x="0" y="18" font-family="Virgil, Segoe UI Emoji" font-size="20px" fill="#000000" text-anchor="start" style="white-space: pre;" direction="ltr">Main Stack</text></g></svg>